<?xml version="1.0" encoding="UTF-8" standalone="no"?>
<svg
   xmlns:dc="http://purl.org/dc/elements/1.1/"
   xmlns:cc="http://creativecommons.org/ns#"
   xmlns:rdf="http://www.w3.org/1999/02/22-rdf-syntax-ns#"
   xmlns:svg="http://www.w3.org/2000/svg"
   xmlns="http://www.w3.org/2000/svg"
   viewBox="0 0 224.503944192 80.503939584"
   width="7.92cm"
   height="2.84cm"
   version="1.1"
   id="svg13">
  <metadata
     id="metadata19">
    <rdf:RDF>
      <cc:Work
         rdf:about="">
        <dc:format>image/svg+xml</dc:format>
        <dc:type
           rdf:resource="http://purl.org/dc/dcmitype/StillImage" />
        <dc:title></dc:title>
      </cc:Work>
    </rdf:RDF>
  </metadata>
  <defs
     id="defs17">
    <rect
       x="33.806157"
       y="-34.030654"
       width="223.49456"
       height="30.510574"
       id="rect850" />
    <rect
       x="33.806156"
       y="-34.030655"
       width="223.49455"
       height="30.510574"
       id="rect850-2" />
    <rect
       x="33.806156"
       y="-34.030655"
       width="223.49455"
       height="30.510574"
       id="rect863" />
  </defs>
  <style
     type="text/css"
     id="style2">.common {fill:none;stroke-width:2.8346457600000003} .bleed {stroke:#E61937;} .trim {stroke:#1D44B8;} .safe {stroke:#17E600;} .ornament {stroke: #000000;}  .cut {stroke: #0045AD} .fold {stroke: #CC21A1;}</style>
  <rect
     style="fill:#ffffff;fill-opacity:1;stroke:#000000;stroke-width:0.850395;stroke-linecap:round;stroke-linejoin:round;stroke-opacity:0"
     id="rect1674"
     width="223.94643"
     height="79.770485"
     x="0.42519751"
     y="0.42519751" />
  <g
     aria-label="https://vermont.cool/quit"
     id="text846"
     style="font-size:14px;line-height:1.25;font-family:'Noto Sans';-inkscape-font-specification:'Noto Sans';word-spacing:0px;stroke-width:0.75">
    <path
       d="m 24.279707,37.577249 q 0,0.56 -0.042,1.078 -0.028,0.518 -0.056,0.728 h 0.112 q 0.364,-0.588 0.938,-0.854 0.574,-0.266 1.274,-0.266 1.246,0 1.988,0.672 0.756,0.658 0.756,2.128 v 4.984 h -2.086 v -4.466 q 0,-1.652 -1.232,-1.652 -0.938,0 -1.302,0.658 -0.35,0.644 -0.35,1.862 v 3.598 h -2.086 v -10.64 h 2.086 z"
       style="font-weight:bold;font-size:14px;stroke-width:0.75"
       id="path921" />
    <path
       d="m 34.611702,44.521249 q 0.35,0 0.672,-0.07 0.322,-0.07 0.644,-0.168 v 1.554 q -0.336,0.14 -0.84,0.238 -0.49,0.112 -1.078,0.112 -0.686,0 -1.232,-0.224 -0.532,-0.224 -0.854,-0.77 -0.308,-0.56 -0.308,-1.54 v -3.682 h -0.994 v -0.882 l 1.148,-0.7 0.602,-1.61 h 1.33 v 1.624 h 2.142 v 1.568 h -2.142 v 3.682 q 0,0.434 0.252,0.658 0.252,0.21 0.658,0.21 z"
       style="font-weight:bold;font-size:14px;stroke-width:0.75"
       id="path923" />
    <path
       d="m 40.687675,44.521249 q 0.35,0 0.672,-0.07 0.322,-0.07 0.644,-0.168 v 1.554 q -0.336,0.14 -0.84,0.238 -0.49,0.112 -1.078,0.112 -0.686,0 -1.232,-0.224 -0.532,-0.224 -0.854,-0.77 -0.308,-0.56 -0.308,-1.54 v -3.682 h -0.994 v -0.882 l 1.148,-0.7 0.602,-1.61 h 1.33 v 1.624 h 2.142 v 1.568 h -2.142 v 3.682 q 0,0.434 0.252,0.658 0.252,0.21 0.658,0.21 z"
       style="font-weight:bold;font-size:14px;stroke-width:0.75"
       id="path925" />
    <path
       d="m 47.799649,38.263249 q 1.288,0 2.086,1.008 0.798,0.994 0.798,2.94 0,1.946 -0.826,2.968 -0.826,1.008 -2.114,1.008 -0.826,0 -1.316,-0.294 -0.49,-0.308 -0.798,-0.686 h -0.112 q 0.112,0.588 0.112,1.12 v 3.08 h -2.086 v -11.004 h 1.694 l 0.294,0.994 h 0.098 q 0.308,-0.462 0.826,-0.798 0.518,-0.336 1.344,-0.336 z m -0.672,1.666 q -0.812,0 -1.148,0.504 -0.322,0.504 -0.35,1.54 v 0.224 q 0,1.106 0.322,1.708 0.336,0.588 1.204,0.588 0.714,0 1.05,-0.588 0.35,-0.602 0.35,-1.722 0,-2.254 -1.428,-2.254 z"
       style="font-weight:bold;font-size:14px;stroke-width:0.75"
       id="path927" />
    <path
       d="m 57.739641,43.779249 q 0,1.162 -0.826,1.792 -0.812,0.616 -2.436,0.616 -0.798,0 -1.372,-0.112 -0.574,-0.098 -1.148,-0.336 v -1.722 q 0.616,0.28 1.33,0.462 0.714,0.182 1.26,0.182 0.616,0 0.868,-0.182 0.266,-0.182 0.266,-0.476 0,-0.196 -0.112,-0.35 -0.098,-0.154 -0.448,-0.35 -0.35,-0.196 -1.092,-0.504 -0.714,-0.308 -1.176,-0.602 -0.462,-0.308 -0.686,-0.728 -0.224,-0.434 -0.224,-1.078 0,-1.064 0.826,-1.596 0.826,-0.532 2.198,-0.532 0.714,0 1.358,0.14 0.644,0.14 1.33,0.462 l -0.63,1.498 q -0.56,-0.238 -1.064,-0.392 -0.504,-0.168 -1.022,-0.168 -0.924,0 -0.924,0.504 0,0.182 0.112,0.336 0.126,0.14 0.462,0.308 0.35,0.168 1.022,0.448 0.658,0.266 1.134,0.56 0.476,0.28 0.728,0.714 0.266,0.42 0.266,1.106 z"
       style="font-weight:bold;font-size:14px;stroke-width:0.75"
       id="path929" />
    <path
       d="m 59.069637,39.425249 q 0,-0.644 0.35,-0.896 0.35,-0.266 0.854,-0.266 0.49,0 0.84,0.266 0.35,0.252 0.35,0.896 0,0.616 -0.35,0.896 -0.35,0.266 -0.84,0.266 -0.504,0 -0.854,-0.266 -0.35,-0.28 -0.35,-0.896 z m 0,5.642 q 0,-0.644 0.35,-0.896 0.35,-0.266 0.854,-0.266 0.49,0 0.84,0.266 0.35,0.252 0.35,0.896 0,0.616 -0.35,0.896 -0.35,0.266 -0.84,0.266 -0.504,0 -0.854,-0.266 -0.35,-0.28 -0.35,-0.896 z"
       style="font-weight:bold;font-size:14px;stroke-width:0.75"
       id="path931" />
    <path
       d="m 67.973635,36.051249 -3.724,9.996 h -1.89 l 3.724,-9.996 z"
       style="font-weight:bold;font-size:14px;stroke-width:0.75"
       id="path933" />
    <path
       d="m 73.75561,36.051249 -3.724,9.996 h -1.89 l 3.724,-9.996 z"
       style="font-weight:bold;font-size:14px;stroke-width:0.75"
       id="path935" />
    <path
       d="m 76.737584,46.047249 -2.912,-7.644 h 2.184 l 1.47,4.354 q 0.126,0.392 0.196,0.812 0.084,0.42 0.098,0.756 h 0.056 q 0.042,-0.756 0.308,-1.568 l 1.47,-4.354 h 2.184 l -2.912,7.644 z"
       style="font-weight:bold;font-size:14px;stroke-width:0.75"
       id="path937" />
    <path
       d="m 86.033561,38.263249 q 1.582,0 2.506,0.91 0.924,0.896 0.924,2.562 v 1.008 h -4.928 q 0.028,0.882 0.518,1.386 0.504,0.504 1.386,0.504 0.742,0 1.344,-0.14 0.602,-0.154 1.246,-0.462 v 1.61 q -0.56,0.28 -1.19,0.406 -0.616,0.14 -1.498,0.14 -1.148,0 -2.03,-0.42 -0.882,-0.434 -1.386,-1.302 -0.504,-0.868 -0.504,-2.184 0,-1.344 0.448,-2.226 0.462,-0.896 1.274,-1.344 0.812,-0.448 1.89,-0.448 z m 0.014,1.484 q -0.602,0 -1.008,0.392 -0.392,0.392 -0.462,1.218 h 2.926 q -0.014,-0.7 -0.364,-1.148 -0.35,-0.462 -1.092,-0.462 z"
       style="font-weight:bold;font-size:14px;stroke-width:0.75"
       id="path939" />
    <path
       d="m 95.427559,38.263249 q 0.154,0 0.364,0.014 0.21,0.014 0.336,0.042 l -0.154,1.96 q -0.098,-0.028 -0.294,-0.042 -0.182,-0.028 -0.322,-0.028 -0.532,0 -1.022,0.196 -0.49,0.182 -0.798,0.602 -0.294,0.42 -0.294,1.148 v 3.892 h -2.086 v -7.644 h 1.582 l 0.308,1.288 h 0.098 q 0.336,-0.588 0.924,-1.008 0.588,-0.42 1.358,-0.42 z"
       style="font-weight:bold;font-size:14px;stroke-width:0.75"
       id="path941" />
    <path
       d="m 106.48753,38.263249 q 1.302,0 1.96,0.672 0.672,0.658 0.672,2.128 v 4.984 h -2.086 v -4.466 q 0,-1.652 -1.148,-1.652 -0.826,0 -1.176,0.588 -0.35,0.588 -0.35,1.694 v 3.836 h -2.086 v -4.466 q 0,-1.652 -1.148,-1.652 -0.868,0 -1.203998,0.658 -0.322,0.644 -0.322,1.862 v 3.598 h -2.086 v -7.644 h 1.596 l 0.28,0.98 h 0.112 q 0.35,-0.588 0.951998,-0.854 0.616,-0.266 1.274,-0.266 0.84,0 1.428,0.28 0.588,0.266 0.896,0.84 h 0.182 q 0.35,-0.588 0.966,-0.854 0.63,-0.266 1.288,-0.266 z"
       style="font-weight:bold;font-size:14px;stroke-width:0.75"
       id="path943" />
    <path
       d="m 118.20552,42.211249 q 0,1.904 -1.008,2.94 -0.994,1.036 -2.716,1.036 -1.064,0 -1.904,-0.462 -0.826,-0.462 -1.302,-1.344 -0.476,-0.896 -0.476,-2.17 0,-1.904 0.994,-2.926 0.994,-1.022 2.73,-1.022 1.078,0 1.904,0.462 0.826,0.462 1.302,1.344 0.476,0.868 0.476,2.142 z m -5.278,0 q 0,1.134 0.364,1.722 0.378,0.574 1.218,0.574 0.826,0 1.19,-0.574 0.378,-0.588 0.378,-1.722 0,-1.134 -0.378,-1.694 -0.364,-0.574 -1.204,-0.574 -0.826,0 -1.204,0.574 -0.364,0.56 -0.364,1.694 z"
       style="font-weight:bold;font-size:14px;stroke-width:0.75"
       id="path945" />
    <path
       d="m 124.2675,38.263249 q 1.232,0 1.974,0.672 0.742,0.658 0.742,2.128 v 4.984 h -2.086 v -4.466 q 0,-0.826 -0.294,-1.232 -0.294,-0.42 -0.938,-0.42 -0.952,0 -1.302,0.658 -0.35,0.644 -0.35,1.862 v 3.598 h -2.086 v -7.644 h 1.596 l 0.28,0.98 h 0.112 q 0.364,-0.588 0.994,-0.854 0.644,-0.266 1.358,-0.266 z"
       style="font-weight:bold;font-size:14px;stroke-width:0.75"
       id="path947" />
    <path
       d="m 132.3455,44.521249 q 0.35,0 0.672,-0.07 0.322,-0.07 0.644,-0.168 v 1.554 q -0.336,0.14 -0.84,0.238 -0.49,0.112 -1.078,0.112 -0.686,0 -1.232,-0.224 -0.532,-0.224 -0.854,-0.77 -0.308,-0.56 -0.308,-1.54 v -3.682 h -0.994 v -0.882 l 1.148,-0.7 0.602,-1.61 h 1.33 v 1.624 h 2.142 v 1.568 h -2.142 v 3.682 q 0,0.434 0.252,0.658 0.252,0.21 0.658,0.21 z"
       style="font-weight:bold;font-size:14px;stroke-width:0.75"
       id="path949" />
    <path
       d="m 134.90747,45.067249 q 0,-0.644 0.35,-0.896 0.35,-0.266 0.854,-0.266 0.49,0 0.84,0.266 0.35,0.252 0.35,0.896 0,0.616 -0.35,0.896 -0.35,0.266 -0.84,0.266 -0.504,0 -0.854,-0.266 -0.35,-0.28 -0.35,-0.896 z"
       style="font-weight:bold;font-size:14px;stroke-width:0.75"
       id="path951" />
    <path
       d="m 142.29947,46.187249 q -1.708,0 -2.646,-0.938 -0.924,-0.952 -0.924,-2.982 0,-1.4 0.476,-2.282 0.476,-0.882 1.316,-1.302 0.854,-0.42 1.96,-0.42 0.784,0 1.358,0.154 0.588,0.154 1.022,0.364 l -0.616,1.61 q -0.49,-0.196 -0.924,-0.322 -0.42,-0.126 -0.84,-0.126 -1.624,0 -1.624,2.31 0,1.148 0.42,1.694 0.434,0.546 1.204,0.546 0.658,0 1.162,-0.168 0.504,-0.182 0.98,-0.49 v 1.778 q -0.476,0.308 -1.008,0.434 -0.518,0.14 -1.316,0.14 z"
       style="font-weight:bold;font-size:14px;stroke-width:0.75"
       id="path953" />
    <path
       d="m 153.33147,42.211249 q 0,1.904 -1.008,2.94 -0.994,1.036 -2.716,1.036 -1.064,0 -1.904,-0.462 -0.826,-0.462 -1.302,-1.344 -0.476,-0.896 -0.476,-2.17 0,-1.904 0.994,-2.926 0.994,-1.022 2.73,-1.022 1.078,0 1.904,0.462 0.826,0.462 1.302,1.344 0.476,0.868 0.476,2.142 z m -5.278,0 q 0,1.134 0.364,1.722 0.378,0.574 1.218,0.574 0.826,0 1.19,-0.574 0.378,-0.588 0.378,-1.722 0,-1.134 -0.378,-1.694 -0.364,-0.574 -1.204,-0.574 -0.826,0 -1.204,0.574 -0.364,0.56 -0.364,1.694 z"
       style="font-weight:bold;font-size:14px;stroke-width:0.75"
       id="path955" />
    <path
       d="m 161.99746,42.211249 q 0,1.904 -1.008,2.94 -0.994,1.036 -2.716,1.036 -1.064,0 -1.904,-0.462 -0.826,-0.462 -1.302,-1.344 -0.476,-0.896 -0.476,-2.17 0,-1.904 0.994,-2.926 0.994,-1.022 2.73,-1.022 1.078,0 1.904,0.462 0.826,0.462 1.302,1.344 0.476,0.868 0.476,2.142 z m -5.278,0 q 0,1.134 0.364,1.722 0.378,0.574 1.218,0.574 0.826,0 1.19,-0.574 0.378,-0.588 0.378,-1.722 0,-1.134 -0.378,-1.694 -0.364,-0.574 -1.204,-0.574 -0.826,0 -1.204,0.574 -0.364,0.56 -0.364,1.694 z"
       style="font-weight:bold;font-size:14px;stroke-width:0.75"
       id="path957" />
    <path
       d="m 165.80546,46.047249 h -2.086 v -10.64 h 2.086 z"
       style="font-weight:bold;font-size:14px;stroke-width:0.75"
       id="path959" />
    <path
       d="m 172.60944,36.051249 -3.724,9.996 h -1.89 l 3.724,-9.996 z"
       style="font-weight:bold;font-size:14px;stroke-width:0.75"
       id="path961" />
    <path
       d="m 178.36341,46.201249 q 0,-0.588 0.084,-1.148 h -0.084 q -0.294,0.476 -0.812,0.812 -0.518,0.322 -1.358,0.322 -1.288,0 -2.086,-0.994 -0.798,-1.008 -0.798,-2.954 0,-1.96 0.812,-2.968 0.812,-1.008 2.114,-1.008 0.84,0 1.358,0.322 0.532,0.322 0.854,0.798 h 0.056 l 0.182,-0.98 h 1.764 v 11.004 h -2.086 z m -1.428,-1.652 q 0.868,0 1.204,-0.504 0.35,-0.518 0.364,-1.54 v -0.252 q 0,-1.12 -0.35,-1.708 -0.336,-0.588 -1.246,-0.588 -0.742,0 -1.106,0.602 -0.364,0.588 -0.364,1.708 0,2.282 1.498,2.282 z"
       style="font-weight:bold;font-size:14px;stroke-width:0.75"
       id="path963" />
    <path
       d="m 189.6474,38.403249 v 7.644 h -1.596 l -0.28,-0.98 h -0.112 q -0.364,0.588 -1.008,0.854 -0.63,0.266 -1.344,0.266 -1.232,0 -1.974,-0.658 -0.742,-0.672 -0.742,-2.142 v -4.984 h 2.086 v 4.466 q 0,0.812 0.294,1.232 0.294,0.42 0.938,0.42 0.952,0 1.302,-0.644 0.35,-0.658 0.35,-1.876 v -3.598 z"
       style="font-weight:bold;font-size:14px;stroke-width:0.75"
       id="path965" />
    <path
       d="m 192.8814,35.407249 q 0.462,0 0.798,0.224 0.336,0.21 0.336,0.798 0,0.574 -0.336,0.798 -0.336,0.224 -0.798,0.224 -0.476,0 -0.812,-0.224 -0.322,-0.224 -0.322,-0.798 0,-0.588 0.322,-0.798 0.336,-0.224 0.812,-0.224 z m 1.036,2.996 v 7.644 h -2.086 v -7.644 z"
       style="font-weight:bold;font-size:14px;stroke-width:0.75"
       id="path967" />
    <path
       d="m 199.32138,44.521249 q 0.35,0 0.672,-0.07 0.322,-0.07 0.644,-0.168 v 1.554 q -0.336,0.14 -0.84,0.238 -0.49,0.112 -1.078,0.112 -0.686,0 -1.232,-0.224 -0.532,-0.224 -0.854,-0.77 -0.308,-0.56 -0.308,-1.54 v -3.682 h -0.994 v -0.882 l 1.148,-0.7 0.602,-1.61 h 1.33 v 1.624 h 2.142 v 1.568 h -2.142 v 3.682 q 0,0.434 0.252,0.658 0.252,0.21 0.658,0.21 z"
       style="font-weight:bold;font-size:14px;stroke-width:0.75"
       id="path969" />
  </g>
  <g
     aria-label="get nicotine free"
     transform="matrix(1.4291374,0,0,1.4291374,5.3105954,62.265505)"
     id="text848"
     style="font-size:11px;line-height:1.25;font-family:'Noto Sans';-inkscape-font-specification:'Noto Sans';word-spacing:0px;white-space:pre;shape-inside:url(#rect850);stroke-width:0.699723">
    <path
       d="m 35.852641,-21.382623 q -0.539,0 -1.001,-0.11 -0.451,-0.099 -0.77,-0.264 v -0.891 q 0.286,0.176 0.77,0.319 0.495,0.143 0.968,0.143 0.682,0 1.122,-0.33 0.44,-0.33 0.616,-1.1 l 0.099,-0.418 q 0.055,-0.253 0.132,-0.561 0.088,-0.308 0.143,-0.517 h -0.044 q -0.374,0.484 -0.858,0.847 -0.473,0.352 -1.089,0.352 -0.715,0 -1.166,-0.506 -0.44,-0.517 -0.44,-1.507 0,-0.803 0.198,-1.54 0.198,-0.737 0.572,-1.309 0.385,-0.583 0.913,-0.913 0.539,-0.341 1.21,-0.341 0.594,0 0.957,0.308 0.363,0.308 0.539,0.715 h 0.044 l 0.363,-0.913 h 0.737 l -1.342,6.237 q -0.264,1.243 -0.946,1.771 -0.671,0.528 -1.727,0.528 z m 0.407,-3.333 q 0.374,0 0.748,-0.275 0.374,-0.275 0.682,-0.737 0.319,-0.473 0.506,-1.067 0.187,-0.594 0.187,-1.232 0,-0.528 -0.253,-0.858 -0.242,-0.33 -0.825,-0.33 -0.44,0 -0.803,0.286 -0.363,0.275 -0.627,0.748 -0.264,0.473 -0.407,1.067 -0.143,0.594 -0.143,1.21 0,1.188 0.935,1.188 z"
       style="font-style:italic;font-variant:normal;font-weight:normal;font-stretch:normal;font-family:'Noto Sans';-inkscape-font-specification:'Noto Sans Italic';stroke-width:0.699723"
       id="path890" />
    <path
       d="m 42.837625,-23.912623 q -1.023,0 -1.584,-0.594 -0.55,-0.605 -0.55,-1.628 0,-0.704 0.198,-1.386 0.209,-0.693 0.594,-1.254 0.385,-0.572 0.924,-0.913 0.55,-0.341 1.232,-0.341 0.836,0 1.254,0.363 0.429,0.363 0.429,1.012 0,0.572 -0.363,1.045 -0.352,0.473 -1.111,0.759 -0.759,0.275 -1.969,0.275 h -0.187 q -0.011,0.099 -0.022,0.209 0,0.11 0,0.198 0,0.671 0.33,1.067 0.33,0.385 1.001,0.385 0.418,0 0.792,-0.121 0.374,-0.121 0.814,-0.33 v 0.825 q -0.418,0.187 -0.825,0.308 -0.396,0.121 -0.957,0.121 z m -0.913,-3.443 q 0.66,0 1.221,-0.11 0.561,-0.121 0.902,-0.385 0.341,-0.275 0.341,-0.726 0,-0.286 -0.198,-0.462 -0.187,-0.187 -0.594,-0.187 -0.528,0 -1.023,0.495 -0.484,0.484 -0.726,1.375 z"
       style="font-style:italic;font-variant:normal;font-weight:normal;font-stretch:normal;font-family:'Noto Sans';-inkscape-font-specification:'Noto Sans Italic';stroke-width:0.699723"
       id="path892" />
    <path
       d="m 47.69961,-23.912623 q -0.594,0 -1.001,-0.286 -0.407,-0.286 -0.407,-1.001 0,-0.352 0.099,-0.781 l 0.671,-3.201 h -0.913 l 0.088,-0.44 0.99,-0.418 0.682,-1.221 h 0.572 l -0.297,1.342 h 1.485 l -0.154,0.737 h -1.474 l -0.682,3.212 q -0.033,0.143 -0.066,0.33 -0.033,0.176 -0.033,0.33 0,0.253 0.132,0.429 0.143,0.176 0.451,0.176 0.198,0 0.385,-0.033 0.187,-0.044 0.396,-0.11 v 0.737 q -0.132,0.066 -0.407,0.132 -0.275,0.066 -0.517,0.066 z"
       style="font-style:italic;font-variant:normal;font-weight:normal;font-stretch:normal;font-family:'Noto Sans';-inkscape-font-specification:'Noto Sans Italic';stroke-width:0.699723"
       id="path894" />
    <path
       d="m 52.440579,-24.022623 1.265,-5.929 h 0.858 l -0.121,1.089 h 0.011 q 0.209,-0.275 0.484,-0.55 0.286,-0.275 0.66,-0.462 0.374,-0.187 0.847,-0.187 0.715,0 1.111,0.396 0.407,0.385 0.407,1.089 0,0.253 -0.044,0.517 -0.033,0.264 -0.077,0.462 l -0.781,3.575 h -1.034 l 0.792,-3.707 q 0.055,-0.253 0.077,-0.418 0.033,-0.176 0.033,-0.33 0,-0.704 -0.748,-0.704 -0.363,0 -0.792,0.253 -0.418,0.253 -0.792,0.825 -0.363,0.572 -0.572,1.54 l -0.55,2.541 z"
       style="font-style:italic;font-variant:normal;font-weight:normal;font-stretch:normal;font-family:'Noto Sans';-inkscape-font-specification:'Noto Sans Italic';stroke-width:0.699723"
       id="path896" />
    <path
       d="m 60.888563,-30.897623 q -0.231,0 -0.385,-0.132 -0.143,-0.143 -0.143,-0.385 0,-0.286 0.165,-0.495 0.176,-0.209 0.484,-0.209 0.506,0 0.506,0.495 0,0.341 -0.198,0.539 -0.198,0.187 -0.429,0.187 z m -2.035,6.875 1.254,-5.896 h 0.968 l -1.254,5.896 z"
       style="font-style:italic;font-variant:normal;font-weight:normal;font-stretch:normal;font-family:'Noto Sans';-inkscape-font-specification:'Noto Sans Italic';stroke-width:0.699723"
       id="path898" />
    <path
       d="m 64.100556,-23.912623 q -0.979,0 -1.584,-0.55 -0.605,-0.55 -0.605,-1.65 0,-0.792 0.209,-1.496 0.22,-0.715 0.616,-1.254 0.407,-0.539 0.979,-0.847 0.572,-0.319 1.276,-0.319 0.385,0 0.77,0.077 0.385,0.077 0.693,0.209 l -0.275,0.803 q -0.22,-0.099 -0.528,-0.187 -0.297,-0.088 -0.649,-0.088 -0.627,0 -1.1,0.429 -0.473,0.418 -0.737,1.122 -0.264,0.704 -0.264,1.54 0,0.671 0.341,1.045 0.352,0.363 0.957,0.363 0.385,0 0.726,-0.11 0.352,-0.11 0.693,-0.253 v 0.814 q -0.308,0.154 -0.693,0.253 -0.374,0.099 -0.825,0.099 z"
       style="font-style:italic;font-variant:normal;font-weight:normal;font-stretch:normal;font-family:'Noto Sans';-inkscape-font-specification:'Noto Sans Italic';stroke-width:0.699723"
       id="path900" />
    <path
       d="m 69.094547,-23.934623 q -1.023,0 -1.617,-0.605 -0.583,-0.616 -0.583,-1.661 0,-0.682 0.187,-1.353 0.187,-0.671 0.55,-1.221 0.374,-0.55 0.924,-0.88 0.561,-0.341 1.287,-0.341 1.034,0 1.617,0.616 0.583,0.605 0.583,1.661 0,0.671 -0.187,1.342 -0.187,0.671 -0.561,1.221 -0.363,0.55 -0.913,0.891 -0.55,0.33 -1.287,0.33 z m 0.055,-0.803 q 0.528,0 0.957,-0.363 0.429,-0.374 0.682,-1.067 0.264,-0.693 0.264,-1.661 0,-0.33 -0.121,-0.638 -0.11,-0.319 -0.374,-0.517 -0.264,-0.209 -0.704,-0.209 -0.605,0 -1.056,0.418 -0.44,0.407 -0.682,1.1 -0.242,0.682 -0.242,1.507 0,0.682 0.33,1.056 0.341,0.374 0.946,0.374 z"
       style="font-style:italic;font-variant:normal;font-weight:normal;font-stretch:normal;font-family:'Noto Sans';-inkscape-font-specification:'Noto Sans Italic';stroke-width:0.699723"
       id="path902" />
    <path
       d="m 74.594544,-23.912623 q -0.594,0 -1.001,-0.286 -0.407,-0.286 -0.407,-1.001 0,-0.352 0.099,-0.781 l 0.671,-3.201 h -0.913 l 0.088,-0.44 0.99,-0.418 0.682,-1.221 h 0.572 l -0.297,1.342 h 1.485 l -0.154,0.737 h -1.474 l -0.682,3.212 q -0.033,0.143 -0.066,0.33 -0.033,0.176 -0.033,0.33 0,0.253 0.132,0.429 0.143,0.176 0.451,0.176 0.198,0 0.385,-0.033 0.187,-0.044 0.396,-0.11 v 0.737 q -0.132,0.066 -0.407,0.132 -0.275,0.066 -0.517,0.066 z"
       style="font-style:italic;font-variant:normal;font-weight:normal;font-stretch:normal;font-family:'Noto Sans';-inkscape-font-specification:'Noto Sans Italic';stroke-width:0.699723"
       id="path904" />
    <path
       d="m 78.554533,-30.897623 q -0.231,0 -0.385,-0.132 -0.143,-0.143 -0.143,-0.385 0,-0.286 0.165,-0.495 0.176,-0.209 0.484,-0.209 0.506,0 0.506,0.495 0,0.341 -0.198,0.539 -0.198,0.187 -0.429,0.187 z m -2.035,6.875 1.254,-5.896 h 0.968 l -1.254,5.896 z"
       style="font-style:italic;font-variant:normal;font-weight:normal;font-stretch:normal;font-family:'Noto Sans';-inkscape-font-specification:'Noto Sans Italic';stroke-width:0.699723"
       id="path906" />
    <path
       d="m 79.313522,-24.022623 1.265,-5.929 h 0.858 l -0.121,1.089 h 0.011 q 0.209,-0.275 0.484,-0.55 0.286,-0.275 0.66,-0.462 0.374,-0.187 0.847,-0.187 0.715,0 1.111,0.396 0.407,0.385 0.407,1.089 0,0.253 -0.044,0.517 -0.033,0.264 -0.077,0.462 l -0.781,3.575 h -1.034 l 0.792,-3.707 q 0.055,-0.253 0.077,-0.418 0.033,-0.176 0.033,-0.33 0,-0.704 -0.748,-0.704 -0.363,0 -0.792,0.253 -0.418,0.253 -0.792,0.825 -0.363,0.572 -0.572,1.54 l -0.55,2.541 z"
       style="font-style:italic;font-variant:normal;font-weight:normal;font-stretch:normal;font-family:'Noto Sans';-inkscape-font-specification:'Noto Sans Italic';stroke-width:0.699723"
       id="path908" />
    <path
       d="m 88.08051,-23.912623 q -1.023,0 -1.584,-0.594 -0.55,-0.605 -0.55,-1.628 0,-0.704 0.198,-1.386 0.209,-0.693 0.594,-1.254 0.385,-0.572 0.924,-0.913 0.55,-0.341 1.232,-0.341 0.836,0 1.254,0.363 0.429,0.363 0.429,1.012 0,0.572 -0.363,1.045 -0.352,0.473 -1.111,0.759 -0.759,0.275 -1.969,0.275 h -0.187 q -0.011,0.099 -0.022,0.209 0,0.11 0,0.198 0,0.671 0.33,1.067 0.33,0.385 1.001,0.385 0.418,0 0.792,-0.121 0.374,-0.121 0.814,-0.33 v 0.825 q -0.418,0.187 -0.825,0.308 -0.396,0.121 -0.957,0.121 z m -0.913,-3.443 q 0.66,0 1.221,-0.11 0.561,-0.121 0.902,-0.385 0.341,-0.275 0.341,-0.726 0,-0.286 -0.198,-0.462 -0.187,-0.187 -0.594,-0.187 -0.528,0 -1.023,0.495 -0.484,0.484 -0.726,1.375 z"
       style="font-style:italic;font-variant:normal;font-weight:normal;font-stretch:normal;font-family:'Noto Sans';-inkscape-font-specification:'Noto Sans Italic';stroke-width:0.699723"
       id="path910" />
    <path
       d="m 93.239475,-21.382623 q -0.209,0 -0.385,-0.033 -0.176,-0.033 -0.319,-0.077 v -0.814 q 0.154,0.044 0.297,0.077 0.143,0.044 0.319,0.044 0.396,0 0.616,-0.33 0.22,-0.319 0.352,-0.924 l 1.21,-5.742 h -1.023 l 0.077,-0.407 1.1,-0.363 0.121,-0.528 q 0.176,-0.759 0.429,-1.177 0.264,-0.429 0.649,-0.605 0.385,-0.176 0.924,-0.176 0.275,0 0.561,0.066 0.297,0.055 0.473,0.143 l -0.253,0.737 q -0.154,-0.055 -0.341,-0.099 -0.176,-0.055 -0.396,-0.055 -0.429,0 -0.682,0.242 -0.242,0.242 -0.396,0.924 l -0.132,0.561 h 1.265 l -0.143,0.737 h -1.265 l -1.232,5.852 q -0.198,0.913 -0.616,1.43 -0.418,0.517 -1.21,0.517 z"
       style="font-style:italic;font-variant:normal;font-weight:normal;font-stretch:normal;font-family:'Noto Sans';-inkscape-font-specification:'Noto Sans Italic';stroke-width:0.699723"
       id="path912" />
    <path
       d="m 97.573465,-24.022623 1.254,-5.896 h 0.792 l -0.121,1.089 h 0.055 q 0.231,-0.308 0.483995,-0.572 0.253,-0.275 0.572,-0.451 0.319,-0.176 0.737,-0.176 0.154,0 0.319,0.022 0.176,0.011 0.319,0.055 l -0.209,0.869 q -0.297,-0.066 -0.561,-0.066 -0.55,0 -0.979,0.363 -0.428995,0.363 -0.714995,0.924 -0.286,0.561 -0.407,1.144 l -0.572,2.695 z"
       style="font-style:italic;font-variant:normal;font-weight:normal;font-stretch:normal;font-family:'Noto Sans';-inkscape-font-specification:'Noto Sans Italic';stroke-width:0.699723"
       id="path914" />
    <path
       d="m 104.08545,-23.912623 q -1.023,0 -1.584,-0.594 -0.55,-0.605 -0.55,-1.628 0,-0.704 0.198,-1.386 0.209,-0.693 0.594,-1.254 0.385,-0.572 0.924,-0.913 0.55,-0.341 1.232,-0.341 0.836,0 1.254,0.363 0.429,0.363 0.429,1.012 0,0.572 -0.363,1.045 -0.352,0.473 -1.111,0.759 -0.759,0.275 -1.969,0.275 h -0.187 q -0.011,0.099 -0.022,0.209 0,0.11 0,0.198 0,0.671 0.33,1.067 0.33,0.385 1.001,0.385 0.418,0 0.792,-0.121 0.374,-0.121 0.814,-0.33 v 0.825 q -0.418,0.187 -0.825,0.308 -0.396,0.121 -0.957,0.121 z m -0.913,-3.443 q 0.66,0 1.221,-0.11 0.561,-0.121 0.902,-0.385 0.341,-0.275 0.341,-0.726 0,-0.286 -0.198,-0.462 -0.187,-0.187 -0.594,-0.187 -0.528,0 -1.023,0.495 -0.484,0.484 -0.726,1.375 z"
       style="font-style:italic;font-variant:normal;font-weight:normal;font-stretch:normal;font-family:'Noto Sans';-inkscape-font-specification:'Noto Sans Italic';stroke-width:0.699723"
       id="path916" />
    <path
       d="m 109.57443,-23.912623 q -1.023,0 -1.584,-0.594 -0.55,-0.605 -0.55,-1.628 0,-0.704 0.198,-1.386 0.209,-0.693 0.594,-1.254 0.385,-0.572 0.924,-0.913 0.55,-0.341 1.232,-0.341 0.836,0 1.254,0.363 0.429,0.363 0.429,1.012 0,0.572 -0.363,1.045 -0.352,0.473 -1.111,0.759 -0.759,0.275 -1.969,0.275 h -0.187 q -0.011,0.099 -0.022,0.209 0,0.11 0,0.198 0,0.671 0.33,1.067 0.33,0.385 1.001,0.385 0.418,0 0.792,-0.121 0.374,-0.121 0.814,-0.33 v 0.825 q -0.418,0.187 -0.825,0.308 -0.396,0.121 -0.957,0.121 z m -0.913,-3.443 q 0.66,0 1.221,-0.11 0.561,-0.121 0.902,-0.385 0.341,-0.275 0.341,-0.726 0,-0.286 -0.198,-0.462 -0.187,-0.187 -0.594,-0.187 -0.528,0 -1.023,0.495 -0.484,0.484 -0.726,1.375 z"
       style="font-style:italic;font-variant:normal;font-weight:normal;font-stretch:normal;font-family:'Noto Sans';-inkscape-font-specification:'Noto Sans Italic';stroke-width:0.699723"
       id="path918" />
  </g>
  <g
     aria-label="natural plant supplement"
     transform="matrix(1.4291374,0,0,1.4291374,-23.120092,98.54685)"
     id="text848-4"
     style="font-size:11px;line-height:1.25;font-family:'Noto Sans';-inkscape-font-specification:'Noto Sans';word-spacing:0px;white-space:pre;shape-inside:url(#rect850-2);stroke-width:0.699723">
    <path
       d="m 34.070641,-24.022623 1.265,-5.929 h 0.858 l -0.121,1.089 h 0.011 q 0.209,-0.275 0.484,-0.55 0.286,-0.275 0.66,-0.462 0.374,-0.187 0.847,-0.187 0.715,0 1.111,0.396 0.407,0.385 0.407,1.089 0,0.253 -0.044,0.517 -0.033,0.264 -0.077,0.462 l -0.781,3.575 h -1.034 l 0.792,-3.707 q 0.055,-0.253 0.077,-0.418 0.033,-0.176 0.033,-0.33 0,-0.704 -0.748,-0.704 -0.363,0 -0.792,0.253 -0.418,0.253 -0.792,0.825 -0.363,0.572 -0.572,1.54 l -0.55,2.541 z"
       style="font-style:italic;font-variant:normal;font-weight:normal;font-stretch:normal;font-family:'Noto Sans';-inkscape-font-specification:'Noto Sans Italic'"
       id="path972" />
    <path
       d="m 42.298625,-23.912623 q -0.704,0 -1.155,-0.506 -0.44,-0.517 -0.44,-1.507 0,-0.825 0.209,-1.562 0.22,-0.748 0.605,-1.309 0.385,-0.572 0.913,-0.902 0.528,-0.33 1.166,-0.33 0.583,0 0.946,0.308 0.363,0.308 0.539,0.715 h 0.055 l 0.352,-0.913 h 0.737 l -1.254,5.896 h -0.77 l 0.143,-1.089 h -0.044 q -0.374,0.484 -0.88,0.847 -0.506,0.352 -1.122,0.352 z m 0.319,-0.803 q 0.407,0 0.792,-0.297 0.396,-0.297 0.715,-0.803 0.319,-0.506 0.484,-1.133 0.088,-0.319 0.11,-0.583 0.033,-0.275 0.033,-0.506 0,-0.517 -0.286,-0.847 -0.286,-0.33 -0.77,-0.33 -0.429,0 -0.792,0.275 -0.363,0.264 -0.638,0.737 -0.275,0.462 -0.429,1.056 -0.143,0.594 -0.143,1.243 0,0.594 0.242,0.891 0.242,0.297 0.682,0.297 z"
       style="font-style:italic;font-variant:normal;font-weight:normal;font-stretch:normal;font-family:'Noto Sans';-inkscape-font-specification:'Noto Sans Italic'"
       id="path974" />
    <path
       d="m 48.458613,-23.912623 q -0.594,0 -1.001,-0.286 -0.407,-0.286 -0.407,-1.001 0,-0.352 0.099,-0.781 l 0.671,-3.201 h -0.913 l 0.088,-0.44 0.99,-0.418 0.682,-1.221 h 0.572 l -0.297,1.342 h 1.485 l -0.154,0.737 h -1.474 l -0.682,3.212 q -0.033,0.143 -0.066,0.33 -0.033,0.176 -0.033,0.33 0,0.253 0.132,0.429 0.143,0.176 0.451,0.176 0.198,0 0.385,-0.033 0.187,-0.044 0.396,-0.11 v 0.737 q -0.132,0.066 -0.407,0.132 -0.275,0.066 -0.517,0.066 z"
       style="font-style:italic;font-variant:normal;font-weight:normal;font-stretch:normal;font-family:'Noto Sans';-inkscape-font-specification:'Noto Sans Italic'"
       id="path976" />
    <path
       d="m 52.1546,-23.912623 q -0.671,0 -1.078,-0.374 -0.396,-0.374 -0.396,-1.089 0,-0.253 0.033,-0.473 0.044,-0.231 0.088,-0.473 l 0.77,-3.597 h 0.979 l -0.792,3.707 q -0.099,0.473 -0.099,0.737 0,0.352 0.176,0.561 0.187,0.198 0.594,0.198 0.374,0 0.803,-0.264 0.44,-0.264 0.814,-0.847 0.374,-0.583 0.583,-1.551 l 0.539,-2.541 h 0.957 l -1.254,5.896 h -0.792 l 0.121,-1.089 h -0.055 q -0.209,0.264 -0.495,0.55 -0.275,0.275 -0.649,0.462 -0.363,0.187 -0.847,0.187 z"
       style="font-style:italic;font-variant:normal;font-weight:normal;font-stretch:normal;font-family:'Noto Sans';-inkscape-font-specification:'Noto Sans Italic'"
       id="path978" />
    <path
       d="m 56.752584,-24.022623 1.254,-5.896 h 0.792 l -0.121,1.089 h 0.055 q 0.231,-0.308 0.484,-0.572 0.253,-0.275 0.572,-0.451 0.319,-0.176 0.737,-0.176 0.154,0 0.319,0.022 0.176,0.011 0.319,0.055 l -0.209,0.869 q -0.297,-0.066 -0.561,-0.066 -0.55,0 -0.979,0.363 -0.429,0.363 -0.715,0.924 -0.286,0.561 -0.407,1.144 l -0.572,2.695 z"
       style="font-style:italic;font-variant:normal;font-weight:normal;font-stretch:normal;font-family:'Noto Sans';-inkscape-font-specification:'Noto Sans Italic'"
       id="path980" />
    <path
       d="m 62.725566,-23.912623 q -0.704,0 -1.155,-0.506 -0.44,-0.517 -0.44,-1.507 0,-0.825 0.209,-1.562 0.22,-0.748 0.605,-1.309 0.385,-0.572 0.913,-0.902 0.528,-0.33 1.166,-0.33 0.583,0 0.946,0.308 0.363,0.308 0.539,0.715 h 0.055 l 0.352,-0.913 h 0.737 l -1.254,5.896 h -0.77 l 0.143,-1.089 h -0.044 q -0.374,0.484 -0.88,0.847 -0.506,0.352 -1.122,0.352 z m 0.319,-0.803 q 0.407,0 0.792,-0.297 0.396,-0.297 0.715,-0.803 0.319,-0.506 0.484,-1.133 0.088,-0.319 0.11,-0.583 0.033,-0.275 0.033,-0.506 0,-0.517 -0.286,-0.847 -0.286,-0.33 -0.77,-0.33 -0.429,0 -0.792,0.275 -0.363,0.264 -0.638,0.737 -0.275,0.462 -0.429,1.056 -0.143,0.594 -0.143,1.243 0,0.594 0.242,0.891 0.242,0.297 0.682,0.297 z"
       style="font-style:italic;font-variant:normal;font-weight:normal;font-stretch:normal;font-family:'Noto Sans';-inkscape-font-specification:'Noto Sans Italic'"
       id="path982" />
    <path
       d="m 67.147555,-24.022623 1.782,-8.36 h 0.968 l -1.782,8.36 z"
       style="font-style:italic;font-variant:normal;font-weight:normal;font-stretch:normal;font-family:'Noto Sans';-inkscape-font-specification:'Noto Sans Italic'"
       id="path984" />
    <path
       d="m 72.306531,-21.382623 1.804,-8.536 h 0.792 l -0.132,1.1 h 0.044 q 0.385,-0.484 0.869,-0.836 0.484,-0.363 1.1,-0.363 0.715,0 1.155,0.506 0.44,0.506 0.44,1.507 0,0.803 -0.198,1.54 -0.198,0.737 -0.572,1.32 -0.374,0.572 -0.913,0.902 -0.528,0.33 -1.188,0.33 -0.594,0 -0.957,-0.297 -0.363,-0.308 -0.55,-0.715 h -0.055 q -0.011,0.176 -0.055,0.495 -0.044,0.308 -0.088,0.506 l -0.539,2.541 z m 3.124,-3.333 q 0.44,0 0.803,-0.275 0.363,-0.286 0.616,-0.759 0.264,-0.473 0.396,-1.067 0.143,-0.594 0.143,-1.21 0,-1.188 -0.935,-1.188 -0.363,0 -0.748,0.275 -0.374,0.264 -0.693,0.726 -0.319,0.462 -0.517,1.056 -0.187,0.594 -0.187,1.254 0,0.528 0.275,0.858 0.275,0.33 0.847,0.33 z"
       style="font-style:italic;font-variant:normal;font-weight:normal;font-stretch:normal;font-family:'Noto Sans';-inkscape-font-specification:'Noto Sans Italic'"
       id="path986" />
    <path
       d="m 79.214511,-24.022623 1.782,-8.36 h 0.968 l -1.782,8.36 z"
       style="font-style:italic;font-variant:normal;font-weight:normal;font-stretch:normal;font-family:'Noto Sans';-inkscape-font-specification:'Noto Sans Italic'"
       id="path988" />
    <path
       d="m 83.878508,-23.912623 q -0.704,0 -1.155,-0.506 -0.44,-0.517 -0.44,-1.507 0,-0.825 0.209,-1.562 0.22,-0.748 0.605,-1.309 0.385,-0.572 0.913,-0.902 0.528,-0.33 1.166,-0.33 0.583,0 0.946,0.308 0.363,0.308 0.539,0.715 h 0.055 l 0.352,-0.913 h 0.737 l -1.254,5.896 h -0.77 l 0.143,-1.089 h -0.044 q -0.374,0.484 -0.88,0.847 -0.506,0.352 -1.122,0.352 z m 0.319,-0.803 q 0.407,0 0.792,-0.297 0.396,-0.297 0.715,-0.803 0.319,-0.506 0.484,-1.133 0.088,-0.319 0.11,-0.583 0.033,-0.275 0.033,-0.506 0,-0.517 -0.286,-0.847 -0.286,-0.33 -0.77,-0.33 -0.429,0 -0.792,0.275 -0.363,0.264 -0.638,0.737 -0.275,0.462 -0.429,1.056 -0.143,0.594 -0.143,1.243 0,0.594 0.242,0.891 0.242,0.297 0.682,0.297 z"
       style="font-style:italic;font-variant:normal;font-weight:normal;font-stretch:normal;font-family:'Noto Sans';-inkscape-font-specification:'Noto Sans Italic'"
       id="path990" />
    <path
       d="m 88.267494,-24.022623 1.265,-5.929 h 0.858 l -0.121,1.089 h 0.011 q 0.209,-0.275 0.484,-0.55 0.286,-0.275 0.66,-0.462 0.374,-0.187 0.847,-0.187 0.715,0 1.111,0.396 0.407,0.385 0.407,1.089 0,0.253 -0.044,0.517 -0.033,0.264 -0.077,0.462 l -0.781,3.575 h -1.034 l 0.792,-3.707 q 0.055,-0.253 0.077,-0.418 0.033,-0.176 0.033,-0.33 0,-0.704 -0.748,-0.704 -0.363,0 -0.792,0.253 -0.418,0.253 -0.792,0.825 -0.363,0.572 -0.572,1.54 l -0.55,2.541 z"
       style="font-style:italic;font-variant:normal;font-weight:normal;font-stretch:normal;font-family:'Noto Sans';-inkscape-font-specification:'Noto Sans Italic'"
       id="path992" />
    <path
       d="m 96.407478,-23.912623 q -0.594,0 -1.001,-0.286 -0.407,-0.286 -0.407,-1.001 0,-0.352 0.099,-0.781 l 0.671,-3.201 h -0.913 l 0.088,-0.44 0.99,-0.418 0.682,-1.221 h 0.572 l -0.297,1.342 h 1.485 l -0.154,0.737 h -1.474 l -0.682,3.212 q -0.033,0.143 -0.066,0.33 -0.033,0.176 -0.033,0.33 0,0.253 0.132,0.429 0.143,0.176 0.451,0.176 0.198,0 0.385,-0.033 0.187,-0.044 0.396,-0.11 v 0.737 q -0.132,0.066 -0.407,0.132 -0.275,0.066 -0.517,0.066 z"
       style="font-style:italic;font-variant:normal;font-weight:normal;font-stretch:normal;font-family:'Noto Sans';-inkscape-font-specification:'Noto Sans Italic'"
       id="path994" />
    <path
       d="m 102.58945,-23.912623 q -0.539,0 -0.946,-0.11 -0.396,-0.099 -0.704,-0.264 v -0.891 q 0.286,0.176 0.715,0.33 0.44,0.143 0.902,0.143 0.649,0 0.99,-0.253 0.341,-0.264 0.341,-0.671 0,-0.319 -0.209,-0.528 -0.209,-0.22 -0.781,-0.539 -0.627,-0.352 -0.946,-0.726 -0.319,-0.374 -0.319,-0.935 0,-0.748 0.539,-1.21 0.55,-0.462 1.463,-0.462 0.539,0 0.99,0.132 0.462,0.121 0.792,0.275 l -0.308,0.77 q -0.286,-0.132 -0.638,-0.242 -0.352,-0.121 -0.836,-0.121 -0.473,0 -0.759,0.231 -0.275,0.22 -0.275,0.572 0,0.286 0.187,0.506 0.198,0.209 0.781,0.528 0.374,0.22 0.671,0.44 0.297,0.22 0.462,0.506 0.176,0.286 0.176,0.704 0,0.891 -0.627,1.353 -0.616,0.462 -1.661,0.462 z"
       style="font-style:italic;font-variant:normal;font-weight:normal;font-stretch:normal;font-family:'Noto Sans';-inkscape-font-specification:'Noto Sans Italic'"
       id="path996" />
    <path
       d="m 107.71544,-23.912623 q -0.671,0 -1.078,-0.374 -0.396,-0.374 -0.396,-1.089 0,-0.253 0.033,-0.473 0.044,-0.231 0.088,-0.473 l 0.77,-3.597 h 0.979 l -0.792,3.707 q -0.099,0.473 -0.099,0.737 0,0.352 0.176,0.561 0.187,0.198 0.594,0.198 0.374,0 0.803,-0.264 0.44,-0.264 0.814,-0.847 0.374,-0.583 0.583,-1.551 l 0.539,-2.541 h 0.957 l -1.254,5.896 h -0.792 l 0.121,-1.089 h -0.055 q -0.209,0.264 -0.495,0.55 -0.275,0.275 -0.649,0.462 -0.363,0.187 -0.847,0.187 z"
       style="font-style:italic;font-variant:normal;font-weight:normal;font-stretch:normal;font-family:'Noto Sans';-inkscape-font-specification:'Noto Sans Italic'"
       id="path998" />
    <path
       d="m 111.76342,-21.382623 1.804,-8.536 h 0.792 l -0.132,1.1 h 0.044 q 0.385,-0.484 0.869,-0.836 0.484,-0.363 1.1,-0.363 0.715,0 1.155,0.506 0.44,0.506 0.44,1.507 0,0.803 -0.198,1.54 -0.198,0.737 -0.572,1.32 -0.374,0.572 -0.913,0.902 -0.528,0.33 -1.188,0.33 -0.594,0 -0.957,-0.297 -0.363,-0.308 -0.55,-0.715 h -0.055 q -0.011,0.176 -0.055,0.495 -0.044,0.308 -0.088,0.506 l -0.539,2.541 z m 3.124,-3.333 q 0.44,0 0.803,-0.275 0.363,-0.286 0.616,-0.759 0.264,-0.473 0.396,-1.067 0.143,-0.594 0.143,-1.21 0,-1.188 -0.935,-1.188 -0.363,0 -0.748,0.275 -0.374,0.264 -0.693,0.726 -0.319,0.462 -0.517,1.056 -0.187,0.594 -0.187,1.254 0,0.528 0.275,0.858 0.275,0.33 0.847,0.33 z"
       style="font-style:italic;font-variant:normal;font-weight:normal;font-stretch:normal;font-family:'Noto Sans';-inkscape-font-specification:'Noto Sans Italic'"
       id="path1000" />
    <path
       d="m 118.1324,-21.382623 1.804,-8.536 h 0.792 l -0.132,1.1 h 0.044 q 0.385,-0.484 0.869,-0.836 0.484,-0.363 1.1,-0.363 0.715,0 1.155,0.506 0.44,0.506 0.44,1.507 0,0.803 -0.198,1.54 -0.198,0.737 -0.572,1.32 -0.374,0.572 -0.913,0.902 -0.528,0.33 -1.188,0.33 -0.594,0 -0.957,-0.297 -0.363,-0.308 -0.55,-0.715 h -0.055 q -0.011,0.176 -0.055,0.495 -0.044,0.308 -0.088,0.506 l -0.539,2.541 z m 3.124,-3.333 q 0.44,0 0.803,-0.275 0.363,-0.286 0.616,-0.759 0.264,-0.473 0.396,-1.067 0.143,-0.594 0.143,-1.21 0,-1.188 -0.935,-1.188 -0.363,0 -0.748,0.275 -0.374,0.264 -0.693,0.726 -0.319,0.462 -0.517,1.056 -0.187,0.594 -0.187,1.254 0,0.528 0.275,0.858 0.275,0.33 0.847,0.33 z"
       style="font-style:italic;font-variant:normal;font-weight:normal;font-stretch:normal;font-family:'Noto Sans';-inkscape-font-specification:'Noto Sans Italic'"
       id="path1002" />
    <path
       d="m 125.04039,-24.022623 1.782,-8.36 h 0.968 l -1.782,8.36 z"
       style="font-style:italic;font-variant:normal;font-weight:normal;font-stretch:normal;font-family:'Noto Sans';-inkscape-font-specification:'Noto Sans Italic'"
       id="path1004" />
    <path
       d="m 130.24338,-23.912623 q -1.023,0 -1.584,-0.594 -0.55,-0.605 -0.55,-1.628 0,-0.704 0.198,-1.386 0.209,-0.693 0.594,-1.254 0.385,-0.572 0.924,-0.913 0.55,-0.341 1.232,-0.341 0.836,0 1.254,0.363 0.429,0.363 0.429,1.012 0,0.572 -0.363,1.045 -0.352,0.473 -1.111,0.759 -0.759,0.275 -1.969,0.275 h -0.187 q -0.011,0.099 -0.022,0.209 0,0.11 0,0.198 0,0.671 0.33,1.067 0.33,0.385 1.001,0.385 0.418,0 0.792,-0.121 0.374,-0.121 0.814,-0.33 v 0.825 q -0.418,0.187 -0.825,0.308 -0.396,0.121 -0.957,0.121 z m -0.913,-3.443 q 0.66,0 1.221,-0.11 0.561,-0.121 0.902,-0.385 0.341,-0.275 0.341,-0.726 0,-0.286 -0.198,-0.462 -0.187,-0.187 -0.594,-0.187 -0.528,0 -1.023,0.495 -0.484,0.484 -0.726,1.375 z"
       style="font-style:italic;font-variant:normal;font-weight:normal;font-stretch:normal;font-family:'Noto Sans';-inkscape-font-specification:'Noto Sans Italic'"
       id="path1006" />
    <path
       d="m 133.37837,-24.022623 1.254,-5.896 h 0.792 l -0.121,1.089 h 0.055 q 0.198,-0.275 0.462,-0.55 0.275,-0.275 0.627,-0.462 0.363,-0.187 0.814,-0.187 0.605,0 0.924,0.352 0.33,0.341 0.396,0.957 h 0.044 q 0.22,-0.33 0.517,-0.627 0.308,-0.297 0.682,-0.484 0.374,-0.198 0.825,-0.198 0.682,0 1.056,0.374 0.374,0.374 0.374,1.078 0,0.264 -0.033,0.495 -0.033,0.22 -0.088,0.473 l -0.759,3.586 h -0.979 l 0.792,-3.696 q 0.055,-0.253 0.077,-0.429 0.022,-0.176 0.022,-0.341 0,-0.33 -0.187,-0.528 -0.176,-0.198 -0.561,-0.198 -0.352,0 -0.759,0.264 -0.396,0.264 -0.748,0.825 -0.341,0.55 -0.528,1.441 l -0.561,2.662 h -0.968 l 0.781,-3.696 q 0.099,-0.495 0.099,-0.726 0,-0.363 -0.165,-0.561 -0.165,-0.209 -0.55,-0.209 -0.352,0 -0.759,0.264 -0.407,0.253 -0.759,0.836 -0.352,0.583 -0.561,1.551 l -0.539,2.541 z"
       style="font-style:italic;font-variant:normal;font-weight:normal;font-stretch:normal;font-family:'Noto Sans';-inkscape-font-specification:'Noto Sans Italic'"
       id="path1008" />
    <path
       d="m 145.35735,-23.912623 q -1.023,0 -1.584,-0.594 -0.55,-0.605 -0.55,-1.628 0,-0.704 0.198,-1.386 0.209,-0.693 0.594,-1.254 0.385,-0.572 0.924,-0.913 0.55,-0.341 1.232,-0.341 0.836,0 1.254,0.363 0.429,0.363 0.429,1.012 0,0.572 -0.363,1.045 -0.352,0.473 -1.111,0.759 -0.759,0.275 -1.969,0.275 h -0.187 q -0.011,0.099 -0.022,0.209 0,0.11 0,0.198 0,0.671 0.33,1.067 0.33,0.385 1.001,0.385 0.418,0 0.792,-0.121 0.374,-0.121 0.814,-0.33 v 0.825 q -0.418,0.187 -0.825,0.308 -0.396,0.121 -0.957,0.121 z m -0.913,-3.443 q 0.66,0 1.221,-0.11 0.561,-0.121 0.902,-0.385 0.341,-0.275 0.341,-0.726 0,-0.286 -0.198,-0.462 -0.187,-0.187 -0.594,-0.187 -0.528,0 -1.023,0.495 -0.484,0.484 -0.726,1.375 z"
       style="font-style:italic;font-variant:normal;font-weight:normal;font-stretch:normal;font-family:'Noto Sans';-inkscape-font-specification:'Noto Sans Italic'"
       id="path1010" />
    <path
       d="m 148.44833,-24.022623 1.265,-5.929 h 0.858 l -0.121,1.089 h 0.011 q 0.209,-0.275 0.484,-0.55 0.286,-0.275 0.66,-0.462 0.374,-0.187 0.847,-0.187 0.715,0 1.111,0.396 0.407,0.385 0.407,1.089 0,0.253 -0.044,0.517 -0.033,0.264 -0.077,0.462 l -0.781,3.575 h -1.034 l 0.792,-3.707 q 0.055,-0.253 0.077,-0.418 0.033,-0.176 0.033,-0.33 0,-0.704 -0.748,-0.704 -0.363,0 -0.792,0.253 -0.418,0.253 -0.792,0.825 -0.363,0.572 -0.572,1.54 l -0.55,2.541 z"
       style="font-style:italic;font-variant:normal;font-weight:normal;font-stretch:normal;font-family:'Noto Sans';-inkscape-font-specification:'Noto Sans Italic'"
       id="path1012" />
    <path
       d="m 156.58831,-23.912623 q -0.594,0 -1.001,-0.286 -0.407,-0.286 -0.407,-1.001 0,-0.352 0.099,-0.781 l 0.671,-3.201 h -0.913 l 0.088,-0.44 0.99,-0.418 0.682,-1.221 h 0.572 l -0.297,1.342 h 1.485 l -0.154,0.737 h -1.474 l -0.682,3.212 q -0.033,0.143 -0.066,0.33 -0.033,0.176 -0.033,0.33 0,0.253 0.132,0.429 0.143,0.176 0.451,0.176 0.198,0 0.385,-0.033 0.187,-0.044 0.396,-0.11 v 0.737 q -0.132,0.066 -0.407,0.132 -0.275,0.066 -0.517,0.066 z"
       style="font-style:italic;font-variant:normal;font-weight:normal;font-stretch:normal;font-family:'Noto Sans';-inkscape-font-specification:'Noto Sans Italic'"
       id="path1014" />
  </g>
</svg>
