<?xml version="1.0" encoding="UTF-8" standalone="no"?>
<svg
   xmlns:dc="http://purl.org/dc/elements/1.1/"
   xmlns:cc="http://creativecommons.org/ns#"
   xmlns:rdf="http://www.w3.org/1999/02/22-rdf-syntax-ns#"
   xmlns:svg="http://www.w3.org/2000/svg"
   xmlns="http://www.w3.org/2000/svg"
   width="1438.5225"
   height="1438.5225"
   version="1.1"
   id="svg2288">
  <metadata
     id="metadata2292">
    <rdf:RDF>
      <cc:Work
         rdf:about="">
        <dc:format>image/svg+xml</dc:format>
        <dc:type
           rdf:resource="http://purl.org/dc/dcmitype/StillImage" />
        <dc:title></dc:title>
      </cc:Work>
    </rdf:RDF>
  </metadata>
  <defs
     id="defs2270">
    <rect
       x="380.76192"
       y="1688.1298"
       width="849.20197"
       height="298.98679"
       id="rect2298" />
    <clipPath
       id="_xd2v8irw-clip-path-dot-color">
      <path
         d="m 21,285 v 33 H 54 V 301.5 A 16.5,16.5 0 0 0 37.5,285"
         transform="rotate(-90,37.5,301.5)"
         id="path1597" />
      <path
         d="m 21,318 v 33 h 16.5 a 16.5,16.5 0 0 0 0,-33"
         transform="rotate(90,37.5,334.5)"
         id="path1599" />
      <path
         d="m 21,384 v 33 h 16.5 a 16.5,16.5 0 0 0 0,-33"
         transform="rotate(-90,37.5,400.5)"
         id="path1601" />
      <path
         d="m 21,417 v 33 H 54 V 433.5 A 16.5,16.5 0 0 0 37.5,417"
         transform="rotate(180,37.5,433.5)"
         id="path1603" />
      <circle
         cx="37.5"
         cy="532.5"
         r="16.5"
         id="circle1605" />
      <path
         d="m 21,615 v 33 h 16.5 a 16.5,16.5 0 0 0 0,-33"
         transform="rotate(-90,37.5,631.5)"
         id="path1607" />
      <path
         d="m 21,648 v 33 H 54 V 664.5 A 16.5,16.5 0 0 0 37.5,648"
         transform="rotate(180,37.5,664.5)"
         id="path1609" />
      <rect
         x="54"
         y="285"
         width="33"
         height="33"
         id="rect1611" />
      <path
         d="m 54,351 v 33 h 16.5 a 16.5,16.5 0 0 0 0,-33"
         transform="rotate(180,70.5,367.5)"
         id="path1613" />
      <path
         d="m 54,417 v 33 H 87 V 433.5 A 16.5,16.5 0 0 0 70.5,417"
         id="path1615" />
      <path
         d="m 54,450 v 33 H 87 V 466.5 A 16.5,16.5 0 0 0 70.5,450"
         transform="rotate(180,70.5,466.5)"
         id="path1617" />
      <path
         d="m 54,549 v 33 h 16.5 a 16.5,16.5 0 0 0 0,-33"
         transform="rotate(180,70.5,565.5)"
         id="path1619" />
      <rect
         x="54"
         y="648"
         width="33"
         height="33"
         id="rect1621" />
      <path
         d="m 54,681 v 33 h 16.5 a 16.5,16.5 0 0 0 0,-33"
         transform="rotate(90,70.5,697.5)"
         id="path1623" />
      <rect
         x="87"
         y="285"
         width="33"
         height="33"
         id="rect1625" />
      <rect
         x="87"
         y="318"
         width="33"
         height="33"
         id="rect1627" />
      <rect
         x="87"
         y="351"
         width="33"
         height="33"
         id="rect1629" />
      <rect
         x="87"
         y="450"
         width="33"
         height="33"
         id="rect1631" />
      <rect
         x="87"
         y="549"
         width="33"
         height="33"
         id="rect1633" />
      <path
         d="m 87,615 v 33 h 33 V 631.5 A 16.5,16.5 0 0 0 103.5,615"
         transform="rotate(-90,103.5,631.5)"
         id="path1635" />
      <path
         d="m 87,648 v 33 h 33 V 664.5 A 16.5,16.5 0 0 0 103.5,648"
         transform="rotate(90,103.5,664.5)"
         id="path1637" />
      <rect
         x="120"
         y="285"
         width="33"
         height="33"
         id="rect1639" />
      <path
         d="m 120,351 v 33 h 16.5 a 16.5,16.5 0 0 0 0,-33"
         id="path1641" />
      <path
         d="m 120,417 v 33 h 33 V 433.5 A 16.5,16.5 0 0 0 136.5,417"
         transform="rotate(-90,136.5,433.5)"
         id="path1643" />
      <rect
         x="120"
         y="450"
         width="33"
         height="33"
         id="rect1645" />
      <rect
         x="120"
         y="483"
         width="33"
         height="33"
         id="rect1647" />
      <rect
         x="120"
         y="516"
         width="33"
         height="33"
         id="rect1649" />
      <path
         d="m 120,549 v 33 h 33 V 565.5 A 16.5,16.5 0 0 0 136.5,549"
         transform="rotate(90,136.5,565.5)"
         id="path1651" />
      <rect
         x="120"
         y="615"
         width="33"
         height="33"
         id="rect1653" />
      <circle
         cx="136.5"
         cy="697.5"
         r="16.5"
         id="circle1655" />
      <path
         d="m 153,285 v 33 h 33 V 301.5 A 16.5,16.5 0 0 0 169.5,285"
         id="path1657" />
      <path
         d="m 153,318 v 33 h 33 V 334.5 A 16.5,16.5 0 0 0 169.5,318"
         transform="rotate(180,169.5,334.5)"
         id="path1659" />
      <path
         d="m 153,384 v 33 h 33 V 400.5 A 16.5,16.5 0 0 0 169.5,384"
         transform="rotate(-90,169.5,400.5)"
         id="path1661" />
      <rect
         x="153"
         y="417"
         width="33"
         height="33"
         id="rect1663" />
      <path
         d="m 153,516 v 33 h 16.5 a 16.5,16.5 0 0 0 0,-33"
         id="path1665" />
      <path
         d="m 153,582 v 33 h 33 V 598.5 A 16.5,16.5 0 0 0 169.5,582"
         transform="rotate(-90,169.5,598.5)"
         id="path1667" />
      <rect
         x="153"
         y="615"
         width="33"
         height="33"
         id="rect1669" />
      <path
         d="m 153,648 v 33 h 33 V 664.5 A 16.5,16.5 0 0 0 169.5,648"
         transform="rotate(180,169.5,664.5)"
         id="path1671" />
      <path
         d="m 186,318 v 33 h 16.5 a 16.5,16.5 0 0 0 0,-33"
         id="path1673" />
      <path
         d="m 186,384 v 33 h 33 V 400.5 A 16.5,16.5 0 0 0 202.5,384"
         id="path1675" />
      <rect
         x="186"
         y="417"
         width="33"
         height="33"
         id="rect1677" />
      <path
         d="m 186,582 v 33 h 33 V 598.5 A 16.5,16.5 0 0 0 202.5,582"
         id="path1679" />
      <rect
         x="186"
         y="615"
         width="33"
         height="33"
         id="rect1681" />
      <rect
         x="186"
         y="648"
         width="33"
         height="33"
         id="rect1683" />
      <path
         d="m 186,681 v 33 h 33 V 697.5 A 16.5,16.5 0 0 0 202.5,681"
         transform="rotate(180,202.5,697.5)"
         id="path1685" />
      <path
         d="m 219,285 v 33 h 16.5 a 16.5,16.5 0 0 0 0,-33"
         transform="rotate(180,235.5,301.5)"
         id="path1687" />
      <circle
         cx="235.5"
         cy="367.5"
         r="16.5"
         id="circle1689" />
      <rect
         x="219"
         y="417"
         width="33"
         height="33"
         id="rect1691" />
      <circle
         cx="235.5"
         cy="499.5"
         r="16.5"
         id="circle1693" />
      <circle
         cx="235.5"
         cy="565.5"
         r="16.5"
         id="circle1695" />
      <rect
         x="219"
         y="615"
         width="33"
         height="33"
         id="rect1697" />
      <rect
         x="219"
         y="681"
         width="33"
         height="33"
         id="rect1699" />
      <path
         d="m 252,285 v 33 h 16.5 a 16.5,16.5 0 0 0 0,-33"
         id="path1701" />
      <rect
         x="252"
         y="417"
         width="33"
         height="33"
         id="rect1703" />
      <path
         d="m 252,516 v 33 h 16.5 a 16.5,16.5 0 0 0 0,-33"
         transform="rotate(180,268.5,532.5)"
         id="path1705" />
      <path
         d="m 252,582 v 33 h 16.5 a 16.5,16.5 0 0 0 0,-33"
         transform="rotate(-90,268.5,598.5)"
         id="path1707" />
      <rect
         x="252"
         y="615"
         width="33"
         height="33"
         id="rect1709" />
      <rect
         x="252"
         y="648"
         width="33"
         height="33"
         id="rect1711" />
      <rect
         x="252"
         y="681"
         width="33"
         height="33"
         id="rect1713" />
      <path
         d="m 285,54 v 33 h 33 V 70.5 A 16.5,16.5 0 0 0 301.5,54"
         transform="rotate(-90,301.5,70.5)"
         id="path1715" />
      <path
         d="m 285,87 v 33 h 16.5 a 16.5,16.5 0 0 0 0,-33"
         transform="rotate(90,301.5,103.5)"
         id="path1717" />
      <path
         d="m 285,153 v 33 h 16.5 a 16.5,16.5 0 0 0 0,-33"
         transform="rotate(180,301.5,169.5)"
         id="path1719" />
      <path
         d="m 285,219 v 33 h 16.5 a 16.5,16.5 0 0 0 0,-33"
         transform="rotate(-90,301.5,235.5)"
         id="path1721" />
      <path
         d="m 285,252 v 33 h 16.5 a 16.5,16.5 0 0 0 0,-33"
         transform="rotate(90,301.5,268.5)"
         id="path1723" />
      <path
         d="m 285,318 v 33 h 33 V 334.5 A 16.5,16.5 0 0 0 301.5,318"
         transform="rotate(-90,301.5,334.5)"
         id="path1725" />
      <path
         d="m 285,351 v 33 h 16.5 a 16.5,16.5 0 0 0 0,-33"
         transform="rotate(90,301.5,367.5)"
         id="path1727" />
      <path
         d="m 285,417 v 33 h 33 V 433.5 A 16.5,16.5 0 0 0 301.5,417"
         id="path1729" />
      <path
         d="m 285,450 v 33 h 16.5 a 16.5,16.5 0 0 0 0,-33"
         transform="rotate(90,301.5,466.5)"
         id="path1731" />
      <rect
         x="285"
         y="516"
         width="33"
         height="33"
         id="rect1733" />
      <path
         d="m 285,615 v 33 h 16.5 a 16.5,16.5 0 0 0 0,-33"
         id="path1735" />
      <rect
         x="285"
         y="681"
         width="33"
         height="33"
         id="rect1737" />
      <path
         d="m 285,747 v 33 h 16.5 a 16.5,16.5 0 0 0 0,-33"
         transform="rotate(180,301.5,763.5)"
         id="path1739" />
      <path
         d="m 285,813 v 33 h 16.5 a 16.5,16.5 0 0 0 0,-33"
         transform="rotate(-90,301.5,829.5)"
         id="path1741" />
      <rect
         x="285"
         y="846"
         width="33"
         height="33"
         id="rect1743" />
      <rect
         x="285"
         y="879"
         width="33"
         height="33"
         id="rect1745" />
      <rect
         x="285"
         y="912"
         width="33"
         height="33"
         id="rect1747" />
      <path
         d="m 285,945 v 33 h 33 V 961.5 A 16.5,16.5 0 0 0 301.5,945"
         transform="rotate(180,301.5,961.5)"
         id="path1749" />
      <rect
         x="318"
         y="54"
         width="33"
         height="33"
         id="rect1751" />
      <path
         d="m 318,120 v 33 h 33 V 136.5 A 16.5,16.5 0 0 0 334.5,120"
         transform="rotate(-90,334.5,136.5)"
         id="path1753" />
      <rect
         x="318"
         y="153"
         width="33"
         height="33"
         id="rect1755" />
      <path
         d="m 318,285 v 33 h 16.5 a 16.5,16.5 0 0 0 0,-33"
         transform="rotate(-90,334.5,301.5)"
         id="path1757" />
      <rect
         x="318"
         y="318"
         width="33"
         height="33"
         id="rect1759" />
      <circle
         cx="334.5"
         cy="400.5"
         r="16.5"
         id="circle1761" />
      <rect
         x="318"
         y="516"
         width="33"
         height="33"
         id="rect1763" />
      <rect
         x="318"
         y="681"
         width="33"
         height="33"
         id="rect1765" />
      <path
         d="m 318,747 v 33 h 16.5 a 16.5,16.5 0 0 0 0,-33"
         id="path1767" />
      <path
         d="m 318,879 v 33 h 16.5 a 16.5,16.5 0 0 0 0,-33"
         id="path1769" />
      <rect
         x="318"
         y="945"
         width="33"
         height="33"
         id="rect1771" />
      <path
         d="m 351,54 v 33 h 16.5 a 16.5,16.5 0 0 0 0,-33"
         id="path1773" />
      <rect
         x="351"
         y="120"
         width="33"
         height="33"
         id="rect1775" />
      <path
         d="m 351,153 v 33 h 33 V 169.5 A 16.5,16.5 0 0 0 367.5,153"
         transform="rotate(90,367.5,169.5)"
         id="path1777" />
      <circle
         cx="367.5"
         cy="235.5"
         r="16.5"
         id="circle1779" />
      <rect
         x="351"
         y="318"
         width="33"
         height="33"
         id="rect1781" />
      <path
         d="m 351,417 v 33 h 16.5 a 16.5,16.5 0 0 0 0,-33"
         transform="rotate(-90,367.5,433.5)"
         id="path1783" />
      <rect
         x="351"
         y="450"
         width="33"
         height="33"
         id="rect1785" />
      <rect
         x="351"
         y="483"
         width="33"
         height="33"
         id="rect1787" />
      <path
         d="m 351,516 v 33 h 33 V 532.5 A 16.5,16.5 0 0 0 367.5,516"
         transform="rotate(90,367.5,532.5)"
         id="path1789" />
      <rect
         x="351"
         y="681"
         width="33"
         height="33"
         id="rect1791" />
      <circle
         cx="367.5"
         cy="862.5"
         r="16.5"
         id="circle1793" />
      <path
         d="m 351,912 v 33 h 33 V 928.5 A 16.5,16.5 0 0 0 367.5,912"
         transform="rotate(-90,367.5,928.5)"
         id="path1795" />
      <path
         d="m 351,945 v 33 h 33 V 961.5 A 16.5,16.5 0 0 0 367.5,945"
         transform="rotate(90,367.5,961.5)"
         id="path1797" />
      <path
         d="m 384,120 v 33 h 16.5 a 16.5,16.5 0 0 0 0,-33"
         id="path1799" />
      <circle
         cx="400.5"
         cy="202.5"
         r="16.5"
         id="circle1801" />
      <path
         d="m 384,252 v 33 h 16.5 a 16.5,16.5 0 0 0 0,-33"
         transform="rotate(-90,400.5,268.5)"
         id="path1803" />
      <rect
         x="384"
         y="285"
         width="33"
         height="33"
         id="rect1805" />
      <rect
         x="384"
         y="318"
         width="33"
         height="33"
         id="rect1807" />
      <rect
         x="384"
         y="351"
         width="33"
         height="33"
         id="rect1809" />
      <path
         d="m 384,384 v 33 h 33 V 400.5 A 16.5,16.5 0 0 0 400.5,384"
         transform="rotate(180,400.5,400.5)"
         id="path1811" />
      <path
         d="m 384,549 v 33 h 33 V 565.5 A 16.5,16.5 0 0 0 400.5,549"
         transform="rotate(-90,400.5,565.5)"
         id="path1813" />
      <rect
         x="384"
         y="582"
         width="33"
         height="33"
         id="rect1815" />
      <rect
         x="384"
         y="615"
         width="33"
         height="33"
         id="rect1817" />
      <rect
         x="384"
         y="648"
         width="33"
         height="33"
         id="rect1819" />
      <rect
         x="384"
         y="681"
         width="33"
         height="33"
         id="rect1821" />
      <rect
         x="384"
         y="714"
         width="33"
         height="33"
         id="rect1823" />
      <path
         d="m 384,747 v 33 h 33 V 763.5 A 16.5,16.5 0 0 0 400.5,747"
         transform="rotate(180,400.5,763.5)"
         id="path1825" />
      <path
         d="m 384,912 v 33 h 16.5 a 16.5,16.5 0 0 0 0,-33"
         id="path1827" />
      <path
         d="m 417,54 v 33 h 16.5 a 16.5,16.5 0 0 0 0,-33"
         transform="rotate(-90,433.5,70.5)"
         id="path1829" />
      <path
         d="m 417,87 v 33 h 16.5 a 16.5,16.5 0 0 0 0,-33"
         transform="rotate(90,433.5,103.5)"
         id="path1831" />
      <circle
         cx="433.5"
         cy="235.5"
         r="16.5"
         id="circle1833" />
      <path
         d="m 417,285 v 33 h 16.5 a 16.5,16.5 0 0 0 0,-33"
         id="path1835" />
      <path
         d="m 417,351 v 33 h 33 V 367.5 A 16.5,16.5 0 0 0 433.5,351"
         id="path1837" />
      <path
         d="m 417,384 v 33 h 33 V 400.5 A 16.5,16.5 0 0 0 433.5,384"
         transform="rotate(90,433.5,400.5)"
         id="path1839" />
      <path
         d="m 417,516 v 33 h 33 V 532.5 A 16.5,16.5 0 0 0 433.5,516"
         transform="rotate(-90,433.5,532.5)"
         id="path1841" />
      <rect
         x="417"
         y="549"
         width="33"
         height="33"
         id="rect1843" />
      <path
         d="m 417,582 v 33 h 33 V 598.5 A 16.5,16.5 0 0 0 433.5,582"
         transform="rotate(90,433.5,598.5)"
         id="path1845" />
      <rect
         x="417"
         y="681"
         width="33"
         height="33"
         id="rect1847" />
      <rect
         x="417"
         y="747"
         width="33"
         height="33"
         id="rect1849" />
      <path
         d="m 417,780 v 33 h 33 V 796.5 A 16.5,16.5 0 0 0 433.5,780"
         transform="rotate(180,433.5,796.5)"
         id="path1851" />
      <path
         d="m 450,120 v 33 h 16.5 a 16.5,16.5 0 0 0 0,-33"
         transform="rotate(-90,466.5,136.5)"
         id="path1853" />
      <path
         d="m 450,153 v 33 h 33 V 169.5 A 16.5,16.5 0 0 0 466.5,153"
         transform="rotate(180,466.5,169.5)"
         id="path1855" />
      <path
         d="m 450,318 v 33 h 16.5 a 16.5,16.5 0 0 0 0,-33"
         transform="rotate(180,466.5,334.5)"
         id="path1857" />
      <circle
         cx="466.5"
         cy="433.5"
         r="16.5"
         id="circle1859" />
      <path
         d="m 450,483 v 33 h 16.5 a 16.5,16.5 0 0 0 0,-33"
         transform="rotate(-90,466.5,499.5)"
         id="path1861" />
      <rect
         x="450"
         y="516"
         width="33"
         height="33"
         id="rect1863" />
      <path
         d="m 450,549 v 33 h 33 V 565.5 A 16.5,16.5 0 0 0 466.5,549"
         transform="rotate(90,466.5,565.5)"
         id="path1865" />
      <rect
         x="450"
         y="681"
         width="33"
         height="33"
         id="rect1867" />
      <rect
         x="450"
         y="714"
         width="33"
         height="33"
         id="rect1869" />
      <rect
         x="450"
         y="747"
         width="33"
         height="33"
         id="rect1871" />
      <rect
         x="450"
         y="780"
         width="33"
         height="33"
         id="rect1873" />
      <path
         d="m 450,912 v 33 h 33 V 928.5 A 16.5,16.5 0 0 0 466.5,912"
         transform="rotate(-90,466.5,928.5)"
         id="path1875" />
      <path
         d="m 450,945 v 33 h 33 V 961.5 A 16.5,16.5 0 0 0 466.5,945"
         transform="rotate(180,466.5,961.5)"
         id="path1877" />
      <path
         d="m 483,21 v 33 h 16.5 a 16.5,16.5 0 0 0 0,-33"
         transform="rotate(-90,499.5,37.5)"
         id="path1879" />
      <path
         d="m 483,54 v 33 h 33 V 70.5 A 16.5,16.5 0 0 0 499.5,54"
         transform="rotate(180,499.5,70.5)"
         id="path1881" />
      <rect
         x="483"
         y="153"
         width="33"
         height="33"
         id="rect1883" />
      <path
         d="m 483,219 v 33 h 16.5 a 16.5,16.5 0 0 0 0,-33"
         transform="rotate(-90,499.5,235.5)"
         id="path1885" />
      <path
         d="m 483,252 v 33 h 16.5 a 16.5,16.5 0 0 0 0,-33"
         transform="rotate(90,499.5,268.5)"
         id="path1887" />
      <rect
         x="483"
         y="318"
         width="33"
         height="33"
         id="rect1889" />
      <circle
         cx="499.5"
         cy="400.5"
         r="16.5"
         id="circle1891" />
      <circle
         cx="499.5"
         cy="598.5"
         r="16.5"
         id="circle1893" />
      <rect
         x="483"
         y="681"
         width="33"
         height="33"
         id="rect1895" />
      <rect
         x="483"
         y="747"
         width="33"
         height="33"
         id="rect1897" />
      <rect
         x="483"
         y="780"
         width="33"
         height="33"
         id="rect1899" />
      <path
         d="m 483,879 v 33 h 16.5 a 16.5,16.5 0 0 0 0,-33"
         transform="rotate(-90,499.5,895.5)"
         id="path1901" />
      <rect
         x="483"
         y="912"
         width="33"
         height="33"
         id="rect1903" />
      <rect
         x="483"
         y="945"
         width="33"
         height="33"
         id="rect1905" />
      <path
         d="m 516,54 v 33 h 16.5 a 16.5,16.5 0 0 0 0,-33"
         id="path1907" />
      <path
         d="m 516,120 v 33 h 16.5 a 16.5,16.5 0 0 0 0,-33"
         transform="rotate(-90,532.5,136.5)"
         id="path1909" />
      <rect
         x="516"
         y="153"
         width="33"
         height="33"
         id="rect1911" />
      <path
         d="m 516,285 v 33 h 33 V 301.5 A 16.5,16.5 0 0 0 532.5,285"
         transform="rotate(-90,532.5,301.5)"
         id="path1913" />
      <rect
         x="516"
         y="318"
         width="33"
         height="33"
         id="rect1915" />
      <path
         d="m 516,351 v 33 h 33 V 367.5 A 16.5,16.5 0 0 0 532.5,351"
         transform="rotate(180,532.5,367.5)"
         id="path1917" />
      <path
         d="m 516,417 v 33 h 16.5 a 16.5,16.5 0 0 0 0,-33"
         transform="rotate(180,532.5,433.5)"
         id="path1919" />
      <path
         d="m 516,516 v 33 h 16.5 a 16.5,16.5 0 0 0 0,-33"
         transform="rotate(180,532.5,532.5)"
         id="path1921" />
      <rect
         x="516"
         y="681"
         width="33"
         height="33"
         id="rect1923" />
      <rect
         x="516"
         y="714"
         width="33"
         height="33"
         id="rect1925" />
      <rect
         x="516"
         y="747"
         width="33"
         height="33"
         id="rect1927" />
      <path
         d="m 516,780 v 33 h 33 V 796.5 A 16.5,16.5 0 0 0 532.5,780"
         transform="rotate(90,532.5,796.5)"
         id="path1929" />
      <rect
         x="516"
         y="945"
         width="33"
         height="33"
         id="rect1931" />
      <rect
         x="549"
         y="153"
         width="33"
         height="33"
         id="rect1933" />
      <circle
         cx="565.5"
         cy="235.5"
         r="16.5"
         id="circle1935" />
      <path
         d="m 549,285 v 33 h 33 V 301.5 A 16.5,16.5 0 0 0 565.5,285"
         id="path1937" />
      <rect
         x="549"
         y="318"
         width="33"
         height="33"
         id="rect1939" />
      <rect
         x="549"
         y="351"
         width="33"
         height="33"
         id="rect1941" />
      <rect
         x="549"
         y="384"
         width="33"
         height="33"
         id="rect1943" />
      <path
         d="m 549,417 v 33 h 33 V 433.5 A 16.5,16.5 0 0 0 565.5,417"
         transform="rotate(90,565.5,433.5)"
         id="path1945" />
      <rect
         x="549"
         y="516"
         width="33"
         height="33"
         id="rect1947" />
      <rect
         x="549"
         y="681"
         width="33"
         height="33"
         id="rect1949" />
      <rect
         x="549"
         y="714"
         width="33"
         height="33"
         id="rect1951" />
      <rect
         x="549"
         y="747"
         width="33"
         height="33"
         id="rect1953" />
      <circle
         cx="565.5"
         cy="862.5"
         r="16.5"
         id="circle1955" />
      <rect
         x="549"
         y="945"
         width="33"
         height="33"
         id="rect1957" />
      <path
         d="m 582,120 v 33 h 33 V 136.5 A 16.5,16.5 0 0 0 598.5,120"
         transform="rotate(-90,598.5,136.5)"
         id="path1959" />
      <path
         d="m 582,153 v 33 h 33 V 169.5 A 16.5,16.5 0 0 0 598.5,153"
         transform="rotate(90,598.5,169.5)"
         id="path1961" />
      <path
         d="m 582,252 v 33 h 16.5 a 16.5,16.5 0 0 0 0,-33"
         transform="rotate(180,598.5,268.5)"
         id="path1963" />
      <path
         d="m 582,318 v 33 h 16.5 a 16.5,16.5 0 0 0 0,-33"
         id="path1965" />
      <path
         d="m 582,516 v 33 h 16.5 a 16.5,16.5 0 0 0 0,-33"
         id="path1967" />
      <path
         d="m 582,681 v 33 h 33 V 697.5 A 16.5,16.5 0 0 0 598.5,681"
         id="path1969" />
      <rect
         x="582"
         y="714"
         width="33"
         height="33"
         id="rect1971" />
      <path
         d="m 582,747 v 33 h 33 V 763.5 A 16.5,16.5 0 0 0 598.5,747"
         transform="rotate(90,598.5,763.5)"
         id="path1973" />
      <path
         d="m 582,879 v 33 h 16.5 a 16.5,16.5 0 0 0 0,-33"
         transform="rotate(-90,598.5,895.5)"
         id="path1975" />
      <rect
         x="582"
         y="912"
         width="33"
         height="33"
         id="rect1977" />
      <rect
         x="582"
         y="945"
         width="33"
         height="33"
         id="rect1979" />
      <circle
         cx="631.5"
         cy="37.5"
         r="16.5"
         id="circle1981" />
      <path
         d="m 615,87 v 33 h 33 V 103.5 A 16.5,16.5 0 0 0 631.5,87"
         transform="rotate(-90,631.5,103.5)"
         id="path1983" />
      <path
         d="m 615,120 v 33 h 33 V 136.5 A 16.5,16.5 0 0 0 631.5,120"
         transform="rotate(90,631.5,136.5)"
         id="path1985" />
      <path
         d="m 615,219 v 33 h 16.5 a 16.5,16.5 0 0 0 0,-33"
         transform="rotate(-90,631.5,235.5)"
         id="path1987" />
      <path
         d="m 615,252 v 33 h 33 V 268.5 A 16.5,16.5 0 0 0 631.5,252"
         transform="rotate(90,631.5,268.5)"
         id="path1989" />
      <path
         d="m 615,384 v 33 h 33 V 400.5 A 16.5,16.5 0 0 0 631.5,384"
         transform="rotate(-90,631.5,400.5)"
         id="path1991" />
      <rect
         x="615"
         y="417"
         width="33"
         height="33"
         id="rect1993" />
      <rect
         x="615"
         y="450"
         width="33"
         height="33"
         id="rect1995" />
      <path
         d="m 615,483 v 33 h 16.5 a 16.5,16.5 0 0 0 0,-33"
         transform="rotate(90,631.5,499.5)"
         id="path1997" />
      <path
         d="m 615,582 v 33 h 16.5 a 16.5,16.5 0 0 0 0,-33"
         transform="rotate(180,631.5,598.5)"
         id="path1999" />
      <path
         d="m 615,714 v 33 h 16.5 a 16.5,16.5 0 0 0 0,-33"
         id="path2001" />
      <circle
         cx="631.5"
         cy="796.5"
         r="16.5"
         id="circle2003" />
      <circle
         cx="631.5"
         cy="862.5"
         r="16.5"
         id="circle2005" />
      <rect
         x="615"
         y="912"
         width="33"
         height="33"
         id="rect2007" />
      <path
         d="m 615,945 v 33 h 33 V 961.5 A 16.5,16.5 0 0 0 631.5,945"
         transform="rotate(90,631.5,961.5)"
         id="path2009" />
      <path
         d="m 648,54 v 33 h 16.5 a 16.5,16.5 0 0 0 0,-33"
         transform="rotate(-90,664.5,70.5)"
         id="path2011" />
      <rect
         x="648"
         y="87"
         width="33"
         height="33"
         id="rect2013" />
      <circle
         cx="664.5"
         cy="202.5"
         r="16.5"
         id="circle2015" />
      <path
         d="m 648,384 v 33 h 16.5 a 16.5,16.5 0 0 0 0,-33"
         id="path2017" />
      <circle
         cx="664.5"
         cy="532.5"
         r="16.5"
         id="circle2019" />
      <rect
         x="648"
         y="582"
         width="33"
         height="33"
         id="rect2021" />
      <rect
         x="648"
         y="615"
         width="33"
         height="33"
         id="rect2023" />
      <rect
         x="648"
         y="648"
         width="33"
         height="33"
         id="rect2025" />
      <path
         d="m 648,681 v 33 h 33 V 697.5 A 16.5,16.5 0 0 0 664.5,681"
         transform="rotate(180,664.5,697.5)"
         id="path2027" />
      <path
         d="m 648,747 v 33 h 16.5 a 16.5,16.5 0 0 0 0,-33"
         transform="rotate(180,664.5,763.5)"
         id="path2029" />
      <path
         d="m 648,813 v 33 h 16.5 a 16.5,16.5 0 0 0 0,-33"
         transform="rotate(180,664.5,829.5)"
         id="path2031" />
      <rect
         x="648"
         y="912"
         width="33"
         height="33"
         id="rect2033" />
      <circle
         cx="697.5"
         cy="37.5"
         r="16.5"
         id="circle2035" />
      <path
         d="m 681,87 v 33 h 16.5 a 16.5,16.5 0 0 0 0,-33"
         id="path2037" />
      <circle
         cx="697.5"
         cy="169.5"
         r="16.5"
         id="circle2039" />
      <circle
         cx="697.5"
         cy="235.5"
         r="16.5"
         id="circle2041" />
      <path
         d="m 681,285 v 33 h 16.5 a 16.5,16.5 0 0 0 0,-33"
         transform="rotate(180,697.5,301.5)"
         id="path2043" />
      <circle
         cx="697.5"
         cy="433.5"
         r="16.5"
         id="circle2045" />
      <path
         d="m 681,549 v 33 h 16.5 a 16.5,16.5 0 0 0 0,-33"
         transform="rotate(-90,697.5,565.5)"
         id="path2047" />
      <rect
         x="681"
         y="582"
         width="33"
         height="33"
         id="rect2049" />
      <rect
         x="681"
         y="681"
         width="33"
         height="33"
         id="rect2051" />
      <rect
         x="681"
         y="714"
         width="33"
         height="33"
         id="rect2053" />
      <rect
         x="681"
         y="747"
         width="33"
         height="33"
         id="rect2055" />
      <rect
         x="681"
         y="780"
         width="33"
         height="33"
         id="rect2057" />
      <rect
         x="681"
         y="813"
         width="33"
         height="33"
         id="rect2059" />
      <rect
         x="681"
         y="912"
         width="33"
         height="33"
         id="rect2061" />
      <rect
         x="714"
         y="285"
         width="33"
         height="33"
         id="rect2063" />
      <rect
         x="714"
         y="318"
         width="33"
         height="33"
         id="rect2065" />
      <rect
         x="714"
         y="351"
         width="33"
         height="33"
         id="rect2067" />
      <path
         d="m 714,384 v 33 h 16.5 a 16.5,16.5 0 0 0 0,-33"
         transform="rotate(90,730.5,400.5)"
         id="path2069" />
      <path
         d="m 714,483 v 33 h 16.5 a 16.5,16.5 0 0 0 0,-33"
         transform="rotate(180,730.5,499.5)"
         id="path2071" />
      <path
         d="m 714,582 v 33 h 16.5 a 16.5,16.5 0 0 0 0,-33"
         id="path2073" />
      <rect
         x="714"
         y="681"
         width="33"
         height="33"
         id="rect2075" />
      <rect
         x="714"
         y="813"
         width="33"
         height="33"
         id="rect2077" />
      <rect
         x="714"
         y="912"
         width="33"
         height="33"
         id="rect2079" />
      <path
         d="m 714,945 v 33 h 33 V 961.5 A 16.5,16.5 0 0 0 730.5,945"
         transform="rotate(180,730.5,961.5)"
         id="path2081" />
      <path
         d="m 747,285 v 33 h 33 V 301.5 A 16.5,16.5 0 0 0 763.5,285"
         id="path2083" />
      <rect
         x="747"
         y="318"
         width="33"
         height="33"
         id="rect2085" />
      <path
         d="m 747,417 v 33 h 16.5 a 16.5,16.5 0 0 0 0,-33"
         transform="rotate(-90,763.5,433.5)"
         id="path2087" />
      <rect
         x="747"
         y="450"
         width="33"
         height="33"
         id="rect2089" />
      <rect
         x="747"
         y="483"
         width="33"
         height="33"
         id="rect2091" />
      <path
         d="m 747,549 v 33 h 16.5 a 16.5,16.5 0 0 0 0,-33"
         transform="rotate(180,763.5,565.5)"
         id="path2093" />
      <path
         d="m 747,615 v 33 h 33 V 631.5 A 16.5,16.5 0 0 0 763.5,615"
         transform="rotate(-90,763.5,631.5)"
         id="path2095" />
      <rect
         x="747"
         y="648"
         width="33"
         height="33"
         id="rect2097" />
      <rect
         x="747"
         y="681"
         width="33"
         height="33"
         id="rect2099" />
      <circle
         cx="763.5"
         cy="763.5"
         r="16.5"
         id="circle2101" />
      <rect
         x="747"
         y="813"
         width="33"
         height="33"
         id="rect2103" />
      <path
         d="m 747,879 v 33 h 16.5 a 16.5,16.5 0 0 0 0,-33"
         transform="rotate(-90,763.5,895.5)"
         id="path2105" />
      <rect
         x="747"
         y="912"
         width="33"
         height="33"
         id="rect2107" />
      <rect
         x="747"
         y="945"
         width="33"
         height="33"
         id="rect2109" />
      <rect
         x="780"
         y="318"
         width="33"
         height="33"
         id="rect2111" />
      <path
         d="m 780,384 v 33 h 16.5 a 16.5,16.5 0 0 0 0,-33"
         transform="rotate(180,796.5,400.5)"
         id="path2113" />
      <rect
         x="780"
         y="450"
         width="33"
         height="33"
         id="rect2115" />
      <rect
         x="780"
         y="483"
         width="33"
         height="33"
         id="rect2117" />
      <rect
         x="780"
         y="516"
         width="33"
         height="33"
         id="rect2119" />
      <rect
         x="780"
         y="549"
         width="33"
         height="33"
         id="rect2121" />
      <rect
         x="780"
         y="582"
         width="33"
         height="33"
         id="rect2123" />
      <rect
         x="780"
         y="615"
         width="33"
         height="33"
         id="rect2125" />
      <rect
         x="780"
         y="681"
         width="33"
         height="33"
         id="rect2127" />
      <rect
         x="780"
         y="813"
         width="33"
         height="33"
         id="rect2129" />
      <rect
         x="780"
         y="912"
         width="33"
         height="33"
         id="rect2131" />
      <path
         d="m 780,945 v 33 h 33 V 961.5 A 16.5,16.5 0 0 0 796.5,945"
         transform="rotate(90,796.5,961.5)"
         id="path2133" />
      <path
         d="m 813,285 v 33 h 16.5 a 16.5,16.5 0 0 0 0,-33"
         transform="rotate(-90,829.5,301.5)"
         id="path2135" />
      <rect
         x="813"
         y="318"
         width="33"
         height="33"
         id="rect2137" />
      <rect
         x="813"
         y="351"
         width="33"
         height="33"
         id="rect2139" />
      <rect
         x="813"
         y="384"
         width="33"
         height="33"
         id="rect2141" />
      <rect
         x="813"
         y="417"
         width="33"
         height="33"
         id="rect2143" />
      <path
         d="m 813,450 v 33 h 33 V 466.5 A 16.5,16.5 0 0 0 829.5,450"
         transform="rotate(90,829.5,466.5)"
         id="path2145" />
      <rect
         x="813"
         y="549"
         width="33"
         height="33"
         id="rect2147" />
      <rect
         x="813"
         y="615"
         width="33"
         height="33"
         id="rect2149" />
      <rect
         x="813"
         y="681"
         width="33"
         height="33"
         id="rect2151" />
      <rect
         x="813"
         y="714"
         width="33"
         height="33"
         id="rect2153" />
      <rect
         x="813"
         y="747"
         width="33"
         height="33"
         id="rect2155" />
      <rect
         x="813"
         y="780"
         width="33"
         height="33"
         id="rect2157" />
      <rect
         x="813"
         y="813"
         width="33"
         height="33"
         id="rect2159" />
      <path
         d="m 813,846 v 33 h 16.5 a 16.5,16.5 0 0 0 0,-33"
         transform="rotate(90,829.5,862.5)"
         id="path2161" />
      <path
         d="m 813,912 v 33 h 16.5 a 16.5,16.5 0 0 0 0,-33"
         id="path2163" />
      <path
         d="m 846,384 v 33 h 16.5 a 16.5,16.5 0 0 0 0,-33"
         id="path2165" />
      <path
         d="m 846,483 v 33 h 16.5 a 16.5,16.5 0 0 0 0,-33"
         transform="rotate(-90,862.5,499.5)"
         id="path2167" />
      <rect
         x="846"
         y="516"
         width="33"
         height="33"
         id="rect2169" />
      <rect
         x="846"
         y="549"
         width="33"
         height="33"
         id="rect2171" />
      <path
         d="m 846,615 v 33 h 16.5 a 16.5,16.5 0 0 0 0,-33"
         id="path2173" />
      <path
         d="m 846,681 v 33 h 33 V 697.5 A 16.5,16.5 0 0 0 862.5,681"
         id="path2175" />
      <path
         d="m 846,714 v 33 h 33 V 730.5 A 16.5,16.5 0 0 0 862.5,714"
         transform="rotate(90,862.5,730.5)"
         id="path2177" />
      <rect
         x="846"
         y="813"
         width="33"
         height="33"
         id="rect2179" />
      <path
         d="m 846,879 v 33 h 16.5 a 16.5,16.5 0 0 0 0,-33"
         transform="rotate(180,862.5,895.5)"
         id="path2181" />
      <path
         d="m 879,285 v 33 h 16.5 a 16.5,16.5 0 0 0 0,-33"
         transform="rotate(180,895.5,301.5)"
         id="path2183" />
      <path
         d="m 879,351 v 33 h 16.5 a 16.5,16.5 0 0 0 0,-33"
         transform="rotate(180,895.5,367.5)"
         id="path2185" />
      <path
         d="m 879,417 v 33 h 33 V 433.5 A 16.5,16.5 0 0 0 895.5,417"
         transform="rotate(-90,895.5,433.5)"
         id="path2187" />
      <path
         d="m 879,450 v 33 h 16.5 a 16.5,16.5 0 0 0 0,-33"
         transform="rotate(90,895.5,466.5)"
         id="path2189" />
      <path
         d="m 879,516 v 33 h 33 V 532.5 A 16.5,16.5 0 0 0 895.5,516"
         id="path2191" />
      <rect
         x="879"
         y="549"
         width="33"
         height="33"
         id="rect2193" />
      <path
         d="m 879,582 v 33 h 33 V 598.5 A 16.5,16.5 0 0 0 895.5,582"
         transform="rotate(180,895.5,598.5)"
         id="path2195" />
      <path
         d="m 879,648 v 33 h 16.5 a 16.5,16.5 0 0 0 0,-33"
         transform="rotate(180,895.5,664.5)"
         id="path2197" />
      <path
         d="m 879,780 v 33 h 33 V 796.5 A 16.5,16.5 0 0 0 895.5,780"
         transform="rotate(-90,895.5,796.5)"
         id="path2199" />
      <path
         d="m 879,813 v 33 h 33 V 829.5 A 16.5,16.5 0 0 0 895.5,813"
         transform="rotate(90,895.5,829.5)"
         id="path2201" />
      <path
         d="m 879,879 v 33 h 16.5 a 16.5,16.5 0 0 0 0,-33"
         id="path2203" />
      <circle
         cx="895.5"
         cy="961.5"
         r="16.5"
         id="circle2205" />
      <path
         d="m 912,285 v 33 h 33 V 301.5 A 16.5,16.5 0 0 0 928.5,285"
         id="path2207" />
      <rect
         x="912"
         y="318"
         width="33"
         height="33"
         id="rect2209" />
      <path
         d="m 912,351 v 33 h 33 V 367.5 A 16.5,16.5 0 0 0 928.5,351"
         transform="rotate(90,928.5,367.5)"
         id="path2211" />
      <path
         d="m 912,417 v 33 h 16.5 a 16.5,16.5 0 0 0 0,-33"
         id="path2213" />
      <path
         d="m 912,549 v 33 h 33 V 565.5 A 16.5,16.5 0 0 0 928.5,549"
         id="path2215" />
      <rect
         x="912"
         y="582"
         width="33"
         height="33"
         id="rect2217" />
      <rect
         x="912"
         y="648"
         width="33"
         height="33"
         id="rect2219" />
      <path
         d="m 912,681 v 33 h 33 V 697.5 A 16.5,16.5 0 0 0 928.5,681"
         transform="rotate(180,928.5,697.5)"
         id="path2221" />
      <path
         d="m 912,780 v 33 h 16.5 a 16.5,16.5 0 0 0 0,-33"
         id="path2223" />
      <circle
         cx="928.5"
         cy="862.5"
         r="16.5"
         id="circle2225" />
      <path
         d="m 912,912 v 33 h 16.5 a 16.5,16.5 0 0 0 0,-33"
         transform="rotate(180,928.5,928.5)"
         id="path2227" />
      <path
         d="m 945,318 v 33 h 16.5 a 16.5,16.5 0 0 0 0,-33"
         id="path2229" />
      <path
         d="m 945,483 v 33 h 16.5 a 16.5,16.5 0 0 0 0,-33"
         transform="rotate(-90,961.5,499.5)"
         id="path2231" />
      <path
         d="m 945,516 v 33 h 16.5 a 16.5,16.5 0 0 0 0,-33"
         transform="rotate(90,961.5,532.5)"
         id="path2233" />
      <path
         d="m 945,582 v 33 h 16.5 a 16.5,16.5 0 0 0 0,-33"
         id="path2235" />
      <path
         d="m 945,648 v 33 h 33 V 664.5 A 16.5,16.5 0 0 0 961.5,648"
         id="path2237" />
      <rect
         x="945"
         y="681"
         width="33"
         height="33"
         id="rect2239" />
      <rect
         x="945"
         y="714"
         width="33"
         height="33"
         id="rect2241" />
      <path
         d="m 945,747 v 33 h 16.5 a 16.5,16.5 0 0 0 0,-33"
         transform="rotate(90,961.5,763.5)"
         id="path2243" />
      <circle
         cx="961.5"
         cy="829.5"
         r="16.5"
         id="circle2245" />
      <path
         d="m 945,912 v 33 h 33 V 928.5 A 16.5,16.5 0 0 0 961.5,912"
         id="path2247" />
      <path
         d="m 945,945 v 33 h 16.5 a 16.5,16.5 0 0 0 0,-33"
         transform="rotate(90,961.5,961.5)"
         id="path2249" />
    </clipPath>
    <clipPath
       id="_xd2v8irw-clip-path-corners-square-color-0-0">
      <path
         clip-rule="evenodd"
         d="m 136.5,21 a 115.5,115.5 0 1 0 0.1,0 z m 0,33 a 82.5,82.5 0 1 1 -0.1,0 z"
         id="path2252" />
    </clipPath>
    <clipPath
       id="_xd2v8irw-clip-path-corners-dot-color-0-0">
      <circle
         cx="136.5"
         cy="136.5"
         r="49.5"
         id="circle2255" />
    </clipPath>
    <clipPath
       id="_xd2v8irw-clip-path-corners-square-color-1-0">
      <path
         clip-rule="evenodd"
         d="m 862.5,21 a 115.5,115.5 0 1 0 0.1,0 z m 0,33 a 82.5,82.5 0 1 1 -0.1,0 z"
         transform="rotate(90,862.5,136.5)"
         id="path2258" />
    </clipPath>
    <clipPath
       id="_xd2v8irw-clip-path-corners-dot-color-1-0">
      <circle
         cx="862.5"
         cy="136.5"
         r="49.5"
         transform="rotate(90,862.5,136.5)"
         id="circle2261" />
    </clipPath>
    <clipPath
       id="_xd2v8irw-clip-path-corners-square-color-0-1">
      <path
         clip-rule="evenodd"
         d="m 136.5,747 a 115.5,115.5 0 1 0 0.1,0 z m 0,33 a 82.5,82.5 0 1 1 -0.1,0 z"
         transform="rotate(-90,136.5,862.5)"
         id="path2264" />
    </clipPath>
    <clipPath
       id="_xd2v8irw-clip-path-corners-dot-color-0-1">
      <circle
         cx="136.5"
         cy="862.5"
         r="49.5"
         transform="rotate(-90,136.5,862.5)"
         id="circle2267" />
    </clipPath>
    <rect
       x="380.76193"
       y="1688.1298"
       width="849.20197"
       height="298.98679"
       id="rect2298-8" />
    <rect
       x="380.76193"
       y="1688.1298"
       width="849.20197"
       height="298.98679"
       id="rect2311" />
    <rect
       x="380.76193"
       y="1688.1298"
       width="849.20197"
       height="298.98679"
       id="rect2298-8-2" />
    <rect
       x="380.76193"
       y="1688.1298"
       width="849.20197"
       height="298.98679"
       id="rect2346" />
    <rect
       x="380.76193"
       y="1688.1298"
       width="849.20197"
       height="298.98679"
       id="rect2298-8-2-4" />
    <rect
       x="380.76193"
       y="1688.1298"
       width="849.20197"
       height="298.98679"
       id="rect2383" />
  </defs>
  <circle
     style="opacity:1;fill:#ffffff;fill-opacity:1;stroke:none;stroke-width:2;stroke-linecap:round;stroke-linejoin:round;stroke-opacity:1;stroke-miterlimit:4;stroke-dasharray:2, 8;stroke-dashoffset:0"
     id="path2294"
     cx="719.26123"
     cy="719.26123"
     r="718.76044" />
  <rect
     x="214.4771"
     y="214.4771"
     height="1000"
     width="1000"
     clip-path="url('#_xd2v8irw-clip-path-background-color')"
     fill="#ffffff"
     id="rect2272"
     style="stroke-width:0;stroke-miterlimit:4;stroke-dasharray:none;stroke:none" />
  <rect
     x="21"
     y="21"
     height="957"
     width="957"
     clip-path="url(#_xd2v8irw-clip-path-dot-color)"
     fill="#4cb050"
     id="rect2274"
     transform="translate(214.4771,214.4771)" />
  <rect
     x="21"
     y="21"
     height="231"
     width="231"
     clip-path="url(#_xd2v8irw-clip-path-corners-square-color-0-0)"
     fill="#1f87e8"
     id="rect2276"
     transform="translate(214.4771,214.4771)" />
  <rect
     x="87"
     y="87"
     height="99"
     width="99"
     clip-path="url(#_xd2v8irw-clip-path-corners-dot-color-0-0)"
     fill="#1f87e8"
     id="rect2278"
     transform="translate(214.4771,214.4771)" />
  <rect
     x="747"
     y="21"
     height="231"
     width="231"
     clip-path="url(#_xd2v8irw-clip-path-corners-square-color-1-0)"
     fill="#1f87e8"
     id="rect2280"
     transform="translate(214.4771,214.4771)" />
  <rect
     x="813"
     y="87"
     height="99"
     width="99"
     clip-path="url(#_xd2v8irw-clip-path-corners-dot-color-1-0)"
     fill="#1f87e8"
     id="rect2282"
     transform="translate(214.4771,214.4771)" />
  <rect
     x="21"
     y="747"
     height="231"
     width="231"
     clip-path="url(#_xd2v8irw-clip-path-corners-square-color-0-1)"
     fill="#1f87e8"
     id="rect2284"
     transform="translate(214.4771,214.4771)" />
  <rect
     x="87"
     y="813"
     height="99"
     width="99"
     clip-path="url(#_xd2v8irw-clip-path-corners-dot-color-0-1)"
     fill="#1f87e8"
     id="rect2286"
     transform="translate(214.4771,214.4771)" />
  <text
     xml:space="preserve"
     id="text2296"
     style="font-size:42.6667px;line-height:1.25;font-family:'Noto Sans';-inkscape-font-specification:'Noto Sans';word-spacing:0px;white-space:pre;shape-inside:url(#rect2298);stroke-width:0.647388;"
     transform="matrix(1.5446715,0,0,1.5446715,-278.54508,-1379.8923)"><tspan
       x="380.76172"
       y="1726.9503"><tspan
         style="shape-inside:url(#rect2298)">https://vermont.cool/quit</tspan></tspan></text>
  <text
     xml:space="preserve"
     id="text2296-3"
     style="font-size:42.6667px;line-height:1.25;font-family:'Noto Sans';-inkscape-font-specification:'Noto Sans';word-spacing:0px;white-space:pre;shape-inside:url(#rect2298-8);stroke-width:0.519228;"
     transform="matrix(1.9259412,0,0,1.9259412,-367.35314,-3147.0925)"><tspan
       x="380.76172"
       y="1726.9503"><tspan
         style="stroke-width:0.519228">plant concentrate</tspan></tspan></text>
  <text
     xml:space="preserve"
     id="text2296-3-2"
     style="font-size:42.6667px;line-height:1.25;font-family:'Noto Sans';-inkscape-font-specification:'Noto Sans';word-spacing:0px;white-space:pre;shape-inside:url(#rect2298-8-2);stroke-width:0.519228;"
     transform="matrix(0,1.9259412,-1.9259412,0,4585.4337,-311.59914)"><tspan
       x="380.76172"
       y="1726.9503"><tspan>more life-years</tspan></tspan></text>
  <text
     xml:space="preserve"
     id="text2296-3-2-5"
     style="font-size:42.6667px;line-height:1.25;font-family:'Noto Sans';-inkscape-font-specification:'Noto Sans';word-spacing:0px;white-space:pre;shape-inside:url(#rect2298-8-2-4);stroke-width:0.480085;"
     transform="matrix(0,-2.0829718,2.0829718,0,-3412.595,1781.0501)"><tspan
       x="380.76172"
       y="1726.9503"><tspan
         style="stroke-width:0.480085">nicotine free</tspan></tspan></text>
</svg>
