<?xml version="1.0" encoding="UTF-8" standalone="no"?>
<svg
   xmlns:dc="http://purl.org/dc/elements/1.1/"
   xmlns:cc="http://creativecommons.org/ns#"
   xmlns:rdf="http://www.w3.org/1999/02/22-rdf-syntax-ns#"
   xmlns:svg="http://www.w3.org/2000/svg"
   xmlns="http://www.w3.org/2000/svg"
   width="381mm"
   height="381mm"
   viewBox="0 0 381 381"
   version="1.1"
   id="svg864">
  <defs
     id="defs858">
    <rect
       x="380.76193"
       y="1688.1298"
       width="849.20197"
       height="298.98679"
       id="rect2298-3" />
    <rect
       x="380.76193"
       y="1688.1298"
       width="849.20197"
       height="298.98679"
       id="rect404" />
    <rect
       x="380.76193"
       y="1688.1298"
       width="849.20197"
       height="298.98679"
       id="rect2298-8-2-4" />
    <rect
       x="380.76193"
       y="1688.1298"
       width="849.20197"
       height="298.98679"
       id="rect407" />
    <rect
       x="380.76193"
       y="1688.1298"
       width="849.20197"
       height="298.98679"
       id="rect2298-8" />
    <rect
       x="380.76193"
       y="1688.1298"
       width="849.20197"
       height="298.98679"
       id="rect410" />
    <rect
       x="380.76193"
       y="1688.1298"
       width="849.20197"
       height="298.98679"
       id="rect2298" />
    <rect
       x="380.76193"
       y="1688.1298"
       width="849.20197"
       height="298.98679"
       id="rect413" />
  </defs>
  <metadata
     id="metadata861">
    <rdf:RDF>
      <cc:Work
         rdf:about="">
        <dc:format>image/svg+xml</dc:format>
        <dc:type
           rdf:resource="http://purl.org/dc/dcmitype/StillImage" />
        <dc:title></dc:title>
      </cc:Work>
    </rdf:RDF>
  </metadata>
  <g
     id="layer1"
     transform="translate(68.294739,77.780823)">
    <circle
       style="fill:#ffffff;stroke:#7a757b;stroke-width:0;stroke-linecap:round;stroke-linejoin:round"
       id="path6795"
       cx="122.20526"
       cy="112.71918"
       r="190.5" />
    <text
       xml:space="preserve"
       id="text2296"
       style="font-size:39.8424px;line-height:1.25;font-family:'Noto Sans';-inkscape-font-specification:'Noto Sans';word-spacing:0px;white-space:pre;shape-inside:url(#rect2298);stroke-width:0.533604;"
       transform="matrix(0.49584313,0,0,0.49584313,-185.6286,-603.52729)"><tspan
         x="380.76172"
         y="1724.3805"><tspan
           style="font-size:39.8424px;shape-inside:url(#rect2298);stroke-width:0.533604">https://vermont.cool/quit</tspan></tspan></text>
    <text
       xml:space="preserve"
       id="text2296-3"
       style="font-size:42.6667px;line-height:1.25;font-family:'Noto Sans';-inkscape-font-specification:'Noto Sans';word-spacing:0px;white-space:pre;shape-inside:url(#rect2298-8);stroke-width:0.414001;"
       transform="matrix(0,0.63909079,-0.63909079,0,1355.6694,-206.62318)"><tspan
         x="380.76172"
         y="1726.9503"><tspan
           style="stroke-width:0.414001">plant-based</tspan></tspan></text>
    <text
       xml:space="preserve"
       id="text2296-3-2-5"
       style="font-size:42.6667px;line-height:1.25;font-family:'Noto Sans';-inkscape-font-specification:'Noto Sans';word-spacing:0px;white-space:pre;shape-inside:url(#rect2298-8-2-4);stroke-width:0.404183;"
       transform="matrix(0,-0.65461472,0.65461472,0,-1137.6874,442.86377)"><tspan
         x="380.76172"
         y="1726.9503"><tspan
           style="stroke-width:0.404183">nicotine free</tspan></tspan></text>
    <text
       xml:space="preserve"
       id="text2296-6"
       style="font-size:39.8424px;line-height:1.25;font-family:'Noto Sans';-inkscape-font-specification:'Noto Sans';word-spacing:0px;white-space:pre;shape-inside:url(#rect2298-3);stroke-width:0.533604;"
       transform="matrix(0.49584313,0,0,0.49584313,-186.29281,-870.50065)"><tspan
         x="380.76172"
         y="1724.3805"><tspan
           style="font-size:39.8424px;shape-inside:url(#rect2298-3);stroke-width:0.533604">https://vermont.cool/quit</tspan></tspan></text>
    <g
       transform="matrix(8.239117,0,0,8.239117,2.96797,-7.9849931)"
       id="g36"
       style="stroke-width:1.10735">
      <g
         id="g34"
         style="stroke-width:1.10735">
        <g
           id="g10"
           style="stroke-width:1.10735">
          <g
             transform="translate(3.5,3.5)"
             id="g8"
             style="stroke-width:1.10735">
            <path
               fill-rule="evenodd"
               d="m -3.5,-3.5 h 7 v 7 h -7 z m 1,1 v 5 h 5 v -5 z"
               fill="#000000"
               id="path4"
               style="stroke-width:1.22624" />
            <path
               fill-rule="evenodd"
               d="m -1.5,-1.5 h 3 v 3 h -3 z"
               fill="#000000"
               id="path6"
               style="stroke-width:1.22624" />
          </g>
        </g>
        <g
           id="g20"
           style="stroke-width:1.10735">
          <g
             transform="translate(25.5,3.5)"
             id="g18"
             style="stroke-width:1.10735">
            <g
               transform="rotate(90)"
               id="g16"
               style="stroke-width:1.10735">
              <path
                 fill-rule="evenodd"
                 d="m -3.5,-3.5 h 7 v 7 h -7 z m 1,1 v 5 h 5 v -5 z"
                 fill="#000000"
                 id="path12"
                 style="stroke-width:1.22624" />
              <path
                 fill-rule="evenodd"
                 d="m -1.5,-1.5 h 3 v 3 h -3 z"
                 fill="#000000"
                 id="path14"
                 style="stroke-width:1.22624" />
            </g>
          </g>
        </g>
        <g
           id="g30"
           style="stroke-width:1.10735">
          <g
             transform="translate(3.5,25.5)"
             id="g28"
             style="stroke-width:1.10735">
            <g
               transform="rotate(-90)"
               id="g26"
               style="stroke-width:1.10735">
              <path
                 fill-rule="evenodd"
                 d="m -3.5,-3.5 h 7 v 7 h -7 z m 1,1 v 5 h 5 v -5 z"
                 fill="#000000"
                 id="path22"
                 style="stroke-width:1.22624" />
              <path
                 fill-rule="evenodd"
                 d="m -1.5,-1.5 h 3 v 3 h -3 z"
                 fill="#000000"
                 id="path24"
                 style="stroke-width:1.22624" />
            </g>
          </g>
        </g>
        <path
           fill-rule="evenodd"
           d="M 9,0 V 1 H 8 v 3 h 1 v 1 h 1 v 2 h 1 V 5 h 1 v 7 h -1 v -1 h -1 v 3 H 8 v -1 h 1 v -3 h 2 V 8 H 10 V 9 H 9 V 6 H 8 v 4 H 5 V 9 H 1 V 8 H 0 v 1 h 1 v 1 h 1 v 1 H 1 v 3 h 1 v 1 H 1 v 2 H 0 v 4 h 1 v -2 h 1 v 1 h 1 v 1 h 2 v -1 h 1 v 1 h 2 v 1 h 2 v 1 h 1 v 1 H 9 v 1 h 1 v 1 H 9 v 1 h 2 v -1 h 1 v -1 h 1 v 2 h 1 v 1 h -1 v 1 h 2 v -1 h 1 v 1 h 1 v -1 h -1 v -1 h -1 v -1 h -1 v -3 h 3 v 1 h -2 v 1 h 1 v 1 h 1 v -1 h 1 v 2 h 1 v -2 h -1 v -1 h 2 v 2 h 1 v 1 h -1 v 1 h -2 v 1 h 2 v -1 h 2 v 1 h 1 v -2 h 1 v -2 h 2 v -1 h 1 v 2 h -1 v 1 h -1 v 1 h -1 v 1 h 3 v -1 h 1 v -4 h 1 v -1 h -1 v 1 h -1 v -3 h 1 v 1 h 1 v -1 h -1 v -4 h -1 v 3 h -2 v -1 h -2 v -1 h 3 v -1 h -3 v -1 h 2 v -1 h 1 v 1 h 1 v -1 h 2 v -1 h -3 v -1 h 1 v -1 h 1 v 1 h 1 V 11 H 27 V 9 h 1 v 1 h 1 V 9 H 28 V 8 h -3 v 1 h -1 v 1 h -1 v 1 h -1 v 1 h 2 v 1 h -1 v 1 h 2 v 1 h -2 v 1 h -1 v 1 h -1 v -1 h -1 v -2 h 2 v -1 h -2 v -1 h 1 V 11 H 20 V 9 h 3 V 8 H 21 V 6 H 20 V 5 h 1 V 3 H 20 V 1 h -1 v 2 h -1 v 1 h 1 V 3 h 1 V 5 H 19 V 6 H 18 V 5 H 16 V 3 h 1 V 2 h 1 V 0 H 17 V 2 H 16 V 0 H 12 V 1 H 10 V 0 Z m 0,1 v 1 h 1 v 1 h 1 v 1 h -1 v 1 h 1 V 4 h 3 V 2 h 1 v 1 h 1 V 2 H 15 V 1 H 12 V 2 H 10 V 1 Z m 6,4 V 7 H 14 V 6 h -1 v 1 h 1 v 1 h -1 v 4 h -1 v 1 h -1 v 2 H 6 V 14 H 7 V 13 H 4 V 12 H 5 V 11 H 3 v 4 H 2 v 1 h 1 v -1 h 1 v -1 h 1 v 2 H 4 v 1 H 3 v 1 H 2 v 1 h 1 v -1 h 1 v 2 h 1 v -1 h 1 v 1 h 1 v -1 h 1 v -1 h 1 v -1 h 1 v 2 H 9 v 1 H 8 v 1 h 1 v -1 h 2 v 3 h 1 v 1 h -1 v 1 h 1 v -1 h 1 v -1 h -1 v -1 h 1 v -1 h 1 v 1 h 2 v -2 h -2 v -1 h -1 v -1 h 2 v 1 h 1 v -2 h 1 v 1 h 1 v -1 h 2 v 1 h 1 v 2 h 1 v -2 h -1 v -1 h -1 v -1 h -1 v -3 h -2 v -1 h -2 v 2 h 3 v 1 h -1 v 1 h -1 v -1 h -1 v 1 h 1 v 1 h -2 v -1 h -1 v -2 h -1 v -1 h 1 v -1 h 1 v -1 h 3 v -1 h 1 v 1 h 1 V 9 h 1 V 8 H 19 V 7 h 1 V 6 H 19 V 7 H 18 V 6 H 17 V 7 H 16 V 5 Z M 6,8 V 9 H 7 V 8 Z m 8,0 v 2 h 1 V 9 h 1 V 8 Z m 10,2 v 1 h 1 V 10 Z M 6,11 v 1 h 1 v -1 z m 20,0 v 1 h 1 v -1 z m -15,4 v 1 h 1 v -1 z m -6,1 v 1 H 4 v 1 h 2 v 1 H 7 V 18 H 6 v -1 h 2 v -1 z m 12,3 v 2 h 1 v -2 z m -5,1 v 1 h 1 v -1 z m 7,0 v 2 h -1 v 1 h 1 v -1 h 1 v -2 z m 2,1 v 3 h 3 v -3 z m 4,0 v 1 h 1 v -1 z m -3,1 v 1 h 1 v -1 z m 3,1 v 1 h 1 v -1 z m 1,4 v 1 h 1 V 27 Z M 8,28 v 1 h 1 v -1 z m 2,0 v 1 h 1 v -1 z"
           fill="#000000"
           id="path32"
           style="stroke-width:1.22624" />
      </g>
    </g>
  </g>
</svg>
